<?xml version="1.0" encoding="utf-8"?>
<!-- Generator: Adobe Illustrator 21.1.0, SVG Export Plug-In . SVG Version: 6.00 Build 0)  -->
<svg version="1.1" id="Calque_1" xmlns="http://www.w3.org/2000/svg" xmlns:xlink="http://www.w3.org/1999/xlink" x="0px" y="0px"
	 viewBox="0 0 56.7 56.7" style="enable-background:new 0 0 56.7 56.7;" xml:space="preserve">
<style type="text/css">
	.st0{fill:none;stroke:#66AAE0;stroke-linecap:round;stroke-miterlimit:10;}
</style>
<path class="st0" d="M20.1,21.5H41l0.6-0.9h2.9l0.1,0.9h1.3v8h-9.3l-0.7,1.2h-3.2l-2.7,5h-6.7c0,0-0.9,3.5-1.2,5.3
	c-0.2,1.7-0.3,2.4-2.6,2.4c-2.3,0-4.5,0-5.3,0s-3.6-0.7-2.2-3.9c1.5-3.3,1.9-4.1,2.8-6c0,0,0.5-0.8,0.4-1.8c-0.1-1.3-1.4-1.8-2.3-2
	s-1.1-1.8,0.1-2s1.4-0.2,1.4-1.3c0-1-0.8-1.5-0.8-3.3c0-1.5,2.6-1.5,2.6-1.5s0.5-1,1.2-1C18.7,20.4,20.1,21.5,20.1,21.5z"/>
<path class="st0" d="M30.5,29.6l-1.6,3.2l-4.1-0.1c0,0-0.9-0.7-0.6-1.7c0.3-1,0.7-1.5,1.8-1.5C27.6,29.6,30.5,29.6,30.5,29.6z"/>
<line class="st0" x1="19.7" y1="23.9" x2="17.9" y2="27.3"/>
<line class="st0" x1="21.7" y1="23.9" x2="19.9" y2="27.3"/>
</svg>
