<?xml version="1.0" encoding="utf-8"?>
<!-- Generator: Adobe Illustrator 21.1.0, SVG Export Plug-In . SVG Version: 6.00 Build 0)  -->
<svg version="1.1" id="Calque_1" xmlns="http://www.w3.org/2000/svg" xmlns:xlink="http://www.w3.org/1999/xlink" x="0px" y="0px"
	 viewBox="0 0 56.7 56.7" style="enable-background:new 0 0 56.7 56.7;" xml:space="preserve">
<style type="text/css">
	.st0{fill:none;stroke:#66AAE0;stroke-linejoin:round;stroke-miterlimit:10;}
</style>
<path class="st0" d="M23.8,18.1l2.8,4.1c0,0,0.6,1.2,0.5,1.9s-0.3,1.7-1.4,2.7s-0.8,2-0.6,2.5c0.2,0.5,0.4,1.3,1.3,2.4
	c1.1,1.2,3.1,3.1,3.1,3.1s1.1,1,2.4,1s1.6-0.3,2.3-0.8s2-2,4.2-0.9s4.5,3.1,4.5,3.1s2.7,2.5-0.1,5.6C40.1,45.9,34,44,34,44
	s-6.6-2.4-11.1-7.4c-4.6-5-9.3-14.2-5.2-18.1C21.5,14.9,23.8,18.1,23.8,18.1z"/>
</svg>
