<?xml version="1.0" encoding="utf-8"?>
<!-- Generator: Adobe Illustrator 21.1.0, SVG Export Plug-In . SVG Version: 6.00 Build 0)  -->
<svg version="1.1" id="Calque_1" xmlns="http://www.w3.org/2000/svg" xmlns:xlink="http://www.w3.org/1999/xlink" x="0px" y="0px"
	 viewBox="0 0 56.7 56.7" style="enable-background:new 0 0 56.7 56.7;" xml:space="preserve">
<style type="text/css">
	.st0{fill:none;stroke:#66AAE0;stroke-linecap:round;stroke-miterlimit:10;}
</style>
<rect x="8.6" y="15.4" class="st0" width="20.9" height="34.3"/>
<rect x="13.4" y="39.5" class="st0" width="2.7" height="5.1"/>
<rect x="13.4" y="30.1" class="st0" width="2.7" height="5.1"/>
<rect x="18.2" y="30.1" class="st0" width="2.7" height="5.1"/>
<rect x="22.9" y="30.1" class="st0" width="2.7" height="5.1"/>
<line class="st0" x1="16.2" y1="37.6" x2="13.4" y2="37.6"/>
<rect x="18.2" y="39.5" class="st0" width="2.7" height="8.4"/>
<line class="st0" x1="20.9" y1="37.6" x2="18.2" y2="37.6"/>
<rect x="22.9" y="39.5" class="st0" width="2.7" height="5.1"/>
<line class="st0" x1="25.6" y1="37.6" x2="22.9" y2="37.6"/>
<rect x="13.4" y="20.4" class="st0" width="2.7" height="5.1"/>
<rect x="18.2" y="20.4" class="st0" width="2.7" height="5.1"/>
<rect x="22.9" y="20.4" class="st0" width="2.7" height="5.1"/>
<line class="st0" x1="16.2" y1="27.8" x2="13.4" y2="27.8"/>
<line class="st0" x1="20.9" y1="27.8" x2="18.2" y2="27.8"/>
<line class="st0" x1="25.6" y1="27.8" x2="22.9" y2="27.8"/>
<rect x="7" y="13.4" class="st0" width="24" height="1.9"/>
<rect x="7" y="49.7" class="st0" width="24" height="1.9"/>
<rect x="29.5" y="20" class="st0" width="17.6" height="29.3"/>
<rect x="34.3" y="36.3" class="st0" width="2.7" height="5.1"/>
<rect x="34.3" y="29.7" class="st0" width="2.7" height="5.1"/>
<rect x="39.1" y="29.7" class="st0" width="2.7" height="5.1"/>
<rect x="39.1" y="36.3" class="st0" width="2.7" height="8.4"/>
<rect x="34.3" y="23.1" class="st0" width="2.7" height="5.1"/>
<rect x="39.1" y="23.1" class="st0" width="2.7" height="5.1"/>
<rect x="39" y="11.3" class="st0" width="2" height="8.6"/>
<rect x="42.4" y="14.6" class="st0" width="2" height="5.3"/>
<rect x="30.4" y="49.3" class="st0" width="18.1" height="1.9"/>
</svg>
