<?xml version="1.0" encoding="utf-8"?>
<!-- Generator: Adobe Illustrator 21.1.0, SVG Export Plug-In . SVG Version: 6.00 Build 0)  -->
<svg version="1.1" id="Calque_1" xmlns="http://www.w3.org/2000/svg" xmlns:xlink="http://www.w3.org/1999/xlink" x="0px" y="0px"
	 viewBox="0 0 56.7 56.7" style="enable-background:new 0 0 56.7 56.7;" xml:space="preserve">
<style type="text/css">
	.st0{fill:none;stroke:#66AAE0;stroke-miterlimit:10;}
</style>
<path class="st0" d="M15,33.5v7c0,0,5.9,5.4,13.2,5.4c7.3,0,13.2-5.4,13.2-5.4v-7.1"/>
<polygon class="st0" points="27.9,15.1 51.4,26.5 51.3,28.1 28.4,40.3 5.1,28.2 5.1,26.8 "/>
<line class="st0" x1="28.2" y1="17.5" x2="36.7" y2="21.8"/>
<line class="st0" x1="47.3" y1="29.8" x2="47.3" y2="35.3"/>
<circle class="st0" cx="47.3" cy="36.6" r="1.4"/>
<path class="st0" d="M45.5,42.6v-2.4c0-1,0.8-1.8,1.8-1.8l0,0c1,0,1.8,0.8,1.8,1.8v2.4H45.5z"/>
<path class="st0" d="M47.3,42.3"/>
</svg>
