<?xml version="1.0" encoding="utf-8"?>
<!-- Generator: Adobe Illustrator 21.1.0, SVG Export Plug-In . SVG Version: 6.00 Build 0)  -->
<svg version="1.1" id="Calque_1" xmlns="http://www.w3.org/2000/svg" xmlns:xlink="http://www.w3.org/1999/xlink" x="0px" y="0px"
	 viewBox="0 0 56.7 56.7" style="enable-background:new 0 0 56.7 56.7;" xml:space="preserve">
<style type="text/css">
	.st0{fill:none;stroke:#66AAE0;stroke-linejoin:round;stroke-miterlimit:10;}
	.st1{fill:none;stroke:#66AAE0;stroke-linecap:round;stroke-miterlimit:10;}
	.st2{fill:none;stroke:#66AAE0;stroke-width:1.5;stroke-miterlimit:10;}
	.st3{fill:none;stroke:#66AAE0;stroke-width:1.5;stroke-linecap:round;stroke-miterlimit:10;}
</style>
<polyline class="st0" points="41.8,43.3 41.8,50.1 14.1,50.1 14.1,13.8 17.5,13.8 "/>
<path class="st0" d="M41.8,43.3"/>
<polyline class="st0" points="38.3,13.8 41.8,13.8 41.8,22 "/>
<path class="st1" d="M22.6,11.3V9.7c0-0.7,0.6-1.2,1.2-1.2h8.7c0.7,0,1.2,0.6,1.2,1.3v1.5"/>
<path class="st1" d="M17.8,15.4v-2.6c0-0.7,0.6-1.2,1.2-1.2h18.3c0.7,0,1.2,0.6,1.2,1.3v2.5L17.8,15.4L17.8,15.4z"/>
<polyline class="st2" points="42.8,29.6 34.2,38.1 25.5,29.7 "/>
<circle class="st3" cx="33.7" cy="32.5" r="13.3"/>
</svg>
