<?xml version="1.0" encoding="utf-8"?>
<!-- Generator: Adobe Illustrator 21.1.0, SVG Export Plug-In . SVG Version: 6.00 Build 0)  -->
<svg version="1.1" id="Calque_1" xmlns="http://www.w3.org/2000/svg" xmlns:xlink="http://www.w3.org/1999/xlink" x="0px" y="0px"
	 viewBox="0 0 35.5 53.5" enable-background="new 0 0 35.5 53.5" xml:space="preserve">
<g>
	<path fill="none" stroke="#67A9DD" stroke-linecap="round" stroke-miterlimit="10" d="M29.7281,41.6258H5.6713
		c-2.6146,0-4.7539-2.1393-4.7539-4.7539V24.0643c0-2.6141,2.1388-4.7529,4.7529-4.7529H29.729c2.6142,0,4.753,2.1389,4.753,4.753
		v12.8075C34.482,39.4865,32.3427,41.6258,29.7281,41.6258z"/>
	<path fill="none" stroke="#67A9DD" stroke-linecap="round" stroke-miterlimit="10" d="M23.6262,19.3102v-8.0164
		c0-3.2689-2.6576-5.9278-5.9259-5.9278c-3.2689,0-5.9278,2.6589-5.9278,5.9278v8.0164"/>
	<path fill="none" stroke="#67A9DD" stroke-linecap="round" stroke-miterlimit="10" d="M7.9807,19.3102v-8.0164
		c0-5.3597,4.3599-9.719,9.7196-9.719c5.3585,0,9.7177,4.3593,9.7177,9.719v8.0164"/>
	<path fill="none" stroke="#67A9DD" stroke-linecap="round" stroke-miterlimit="10" d="M17.7003,25.9685
		c-1.2416,0-2.2507,1.0084-2.2507,2.2501c0,0.8295,0.4561,1.547,1.1251,1.9368v3.6883c0,0.6218,0.5032,1.125,1.1256,1.125
		c0.6205,0,1.1251-0.5032,1.1251-1.125v-3.6883c0.669-0.3898,1.125-1.1073,1.125-1.9368
		C19.9504,26.9769,18.9407,25.9685,17.7003,25.9685z"/>
</g>
<g>
	<g>
		<circle fill="none" stroke="#67A9DD" stroke-linecap="round" stroke-miterlimit="10" cx="17.6997" cy="48.5728" r="3.3333"/>
		
			<line fill="none" stroke="#67A9DD" stroke-linecap="round" stroke-miterlimit="10" x1="21.033" y1="48.5727" x2="29.783" y2="48.5727"/>
		
			<line fill="none" stroke="#67A9DD" stroke-linecap="round" stroke-miterlimit="10" x1="5.6164" y1="48.5727" x2="14.3664" y2="48.5727"/>
	</g>
	
		<line fill="none" stroke="#67A9DD" stroke-linecap="round" stroke-miterlimit="10" x1="17.6997" y1="45.2394" x2="17.6997" y2="41.9061"/>
</g>
<g>
</g>
<g>
</g>
<g>
</g>
<g>
</g>
<g>
</g>
<g>
</g>
</svg>
