<?xml version="1.0" encoding="utf-8"?>
<!-- Generator: Adobe Illustrator 21.1.0, SVG Export Plug-In . SVG Version: 6.00 Build 0)  -->
<svg version="1.1" id="Calque_1" xmlns="http://www.w3.org/2000/svg" xmlns:xlink="http://www.w3.org/1999/xlink" x="0px" y="0px"
	 viewBox="0 0 56.7 56.7" style="enable-background:new 0 0 56.7 56.7;" xml:space="preserve">
<style type="text/css">
	.st0{fill:none;stroke:#66AAE0;stroke-linecap:round;stroke-linejoin:round;stroke-miterlimit:10;}
</style>
<g>
	<path class="st0" d="M45.8,31.8c0,0.2-0.4,0.4-0.8,0.4c-0.5,0-0.8-0.2-0.8-0.4"/>
	<path class="st0" d="M49.5,26.2c-0.7-0.2-1.1,0.5-2.7,1c-1.6,0.5-5.2-2.6-5.2-2.6"/>
	<polyline class="st0" points="42.5,35.8 42.5,37.2 45.1,38.9 47.7,36.9 47.7,35.9 	"/>
	<path class="st0" d="M47.7,36.9c0,0,3.7,0.4,4.9,1.4c1.2,1,2.6,2.3,2.9,6.4c-2.5,1.1-5,2.2-10.3,2.2c-5.3,0-9.1-1.6-10.5-2.1
		c0.3-3.2,1.4-7.7,7.9-7.6"/>
	<path class="st0" d="M50.1,29.1l-0.1,0c-0.1-3.5-1.3-6.2-4.9-6.3c-3.9-0.1-4.8,2.8-4.9,6.3l-0.3,0c-0.4,0-0.6,0.5-0.6,1.2
		c0,0.6,0.3,1.2,0.6,1.2l0.4,0c0.4,2.4,1.7,4.2,3.3,4.9c0.4,0.2,0.9,0.3,1.4,0.3c0.7,0,1.3-0.2,1.9-0.5c1.4-0.8,2.4-2.5,2.8-4.6
		l0.3,0c0.4,0,0.6-0.5,0.6-1.2C50.7,29.6,50.5,29.1,50.1,29.1z"/>
</g>
<g>
	<path class="st0" d="M13.2,32.5c0,0.2-0.4,0.4-0.8,0.4c-0.5,0-0.8-0.2-0.8-0.4"/>
	<path class="st0" d="M10.3,24.7c0,0,1.9,2.2,3.9,2.5c4,0.6,4.4-2.5,4-4.2c0,0-1,2.6-1.9,1.2"/>
	<path class="st0" d="M20.4,45.6c-1.9,0.7-4.3,1.3-8,1.3c-5.3,0-9.1-1.6-10.5-2.1c0.3-3.2,1.4-7.7,7.9-7.6"/>
	<path class="st0" d="M15,36.9c0,0,3.7,0.4,4.9,1.4c0.2,0.2,0.5,0.4,0.7,0.6"/>
	<path class="st0" d="M10.1,35.4l-0.2,1.8c0,0,0.3,1.7,2.6,1.7c2.3,0,2.6-2,2.6-2l-0.2-1.2"/>
	<path class="st0" d="M16.2,24.2c-0.8-1.1-1.9-1.8-3.7-1.8c-3.9-0.1-4.8,2.8-4.9,6.3l-0.3,0c-0.4,0-0.6,0.5-0.6,1.2
		C6.7,30.5,7,31,7.4,31l0.4,0c0.4,2.4,1.7,4.3,3.3,5c0.4,0.2,0.9,0.3,1.4,0.3c0.7,0,1.3-0.2,1.9-0.5c1.4-0.8,2.4-2.6,2.8-4.7l0.3,0
		c0.4,0,0.6-0.5,0.6-1.2c0-0.6-0.3-1.2-0.6-1.2l-0.1,0c0-0.7-0.1-1.4-0.2-2"/>
	<path class="st0" d="M10.3,24.7c0,0,0.1,2.4-2.4,2.4"/>
</g>
<g>
	<path class="st0" d="M29.5,31.8c0,0.2-0.4,0.4-0.8,0.4c-0.5,0-0.8-0.2-0.8-0.4"/>
	<path class="st0" d="M33,25c0,0-1.4,0.3-3.6-0.1c-2.2-0.4-4-0.6-4-0.6s-0.2-2.9,5.3-3.3c0.9-0.1,1.5,0.2,1.8,0.5"/>
	<path class="st0" d="M32.5,21.5c1,1-0.1,3.3,0.5,3.5"/>
	<path class="st0" d="M26.2,35.8v1.4c0,0,0.2,1.7,2.6,1.7c2.4,0,2.6-2,2.6-2v-1"/>
	<path class="st0" d="M36.7,45.6c-1.9,0.7-4.3,1.3-8,1.3c-5.3,0-9.1-1.6-10.5-2.1c0.3-3.2,1.4-7.7,7.9-7.6"/>
	<path class="st0" d="M31.3,36.9c0,0,3.7,0.4,4.9,1.4c0.3,0.2,0.5,0.4,0.8,0.7"/>
	<path class="st0" d="M25.3,24.1c-1,1.2-1.3,3-1.4,5l-0.3,0c-0.4,0-0.6,0.5-0.6,1.2c0,0.6,0.3,1.2,0.6,1.2l0.4,0
		c0.4,2.4,1.7,4.3,3.3,5c0.4,0.2,0.9,0.3,1.4,0.3c0.7,0,1.3-0.2,1.9-0.5c1.4-0.8,2.4-2.6,2.8-4.7l0.3,0c0.4,0,0.6-0.5,0.6-1.2
		c0-0.6-0.3-1.2-0.6-1.2l-0.1,0c-0.1-1.6-0.3-3-0.9-4.1"/>
	<path class="st0" d="M25.2,24.1c0,0-2.8,0.6-3.4,4.6c1-0.1,1.9,0,1.9,0"/>
	<path class="st0" d="M33,23.7c0,0,2.5,2.1,2.5,5.2c-0.9,0.1-1.9-0.1-1.9-0.1"/>
</g>
</svg>
