<?xml version="1.0" encoding="utf-8"?>
<!-- Generator: Adobe Illustrator 21.1.0, SVG Export Plug-In . SVG Version: 6.00 Build 0)  -->
<svg version="1.1" id="Calque_1" xmlns="http://www.w3.org/2000/svg" xmlns:xlink="http://www.w3.org/1999/xlink" x="0px" y="0px"
	 viewBox="0 0 56.7 56.7" style="enable-background:new 0 0 56.7 56.7;" xml:space="preserve">
<style type="text/css">
	.st0{fill:none;stroke:#66AAE0;stroke-linecap:round;stroke-miterlimit:10;}
	.st1{fill:none;stroke:#66AAE0;stroke-linecap:round;stroke-linejoin:round;stroke-miterlimit:10;}
</style>
<g>
	<polyline class="st0" points="36.4,28.2 34.6,37.2 36.9,37.1 37.8,45.7 	"/>
	<path class="st0" d="M36.4,28.2"/>
	<path class="st0" d="M35.5,22.2"/>
	<path class="st1" d="M37.6,21.4c0,0-1.5-0.2-2.1,0.8L33,33.3c0,0-1.6-2.6-1.9-3.2s-1.3-0.8-1.3-0.8h-2.9c0,0-1,0.3-1.3,0.8
		l-2.4,3.4c0,0-0.4-11.6-0.9-12.4c-0.4-0.9-3-1.7-3-1.7"/>
	<path class="st0" d="M40.9,21.3c0,0,1.6-0.1,2.2,0.9c0.1,0.1,0.1,0.4,0.1,0.4l0.6,10.3"/>
	<polyline class="st0" points="40.8,45.7 41.7,37.1 44.1,37.2 43.1,32.8 	"/>
	<path class="st0" d="M15.6,19.4c0,0-2.3,0.7-3,1.7c-0.7,1,0,10.2,0,10.2l1.5,1.5l0,13"/>
	<line class="st0" x1="20.8" y1="45.7" x2="20.8" y2="32.9"/>
	<line class="st1" x1="30.4" y1="45.7" x2="30.9" y2="37.9"/>
	<line class="st0" x1="26.2" y1="45.7" x2="25.4" y2="38"/>
	<ellipse class="st0" cx="28.4" cy="26.6" rx="2" ry="2.5"/>
	<path class="st1" d="M15.7,19.8V18c-0.5-0.6-0.9-1.4-0.9-2.3c0-1.7,1.1-3.1,2.6-3.1s2.6,1.4,2.6,3.1c0,0.9-0.3,1.6-0.8,2.2v1.9"/>
	<path class="st0" d="M40.7,21.1l-0.1-0.8l0.1-0.3h0.8V18c0-0.1,0-0.2,0-0.3c0-1.5-1-2.7-2.3-2.7S37,16.2,37,17.7c0,0.1,0,0.2,0,0.3
		V20h0.8l0.1,0.3l0,1"/>
</g>
<line class="st1" x1="12.5" y1="34.8" x2="12.5" y2="41"/>
</svg>
