<?xml version="1.0" encoding="utf-8"?>
<!-- Generator: Adobe Illustrator 21.1.0, SVG Export Plug-In . SVG Version: 6.00 Build 0)  -->
<svg version="1.1" id="Calque_1" xmlns="http://www.w3.org/2000/svg" xmlns:xlink="http://www.w3.org/1999/xlink" x="0px" y="0px"
	 viewBox="0 0 56.7 56.7" style="enable-background:new 0 0 56.7 56.7;" xml:space="preserve">
<style type="text/css">
	.st0{fill:none;stroke:#66AAE0;stroke-linecap:round;stroke-miterlimit:10;}
	.st1{fill:none;stroke:#66AAE0;stroke-miterlimit:10;}
	.st2{fill:#FFFFFF;stroke:#66AAE0;stroke-miterlimit:10;}
</style>
<g>
	<polyline class="st0" points="30.9,17.2 46.1,17.2 46.1,28.7 42.5,28.7 	"/>
	<polyline class="st0" points="16.4,28.7 11.7,28.7 11.7,17.2 28.6,17.2 	"/>
	<polygon class="st1" points="12.9,45.7 12.9,28.7 16.4,28.7 29.8,16.1 42.5,28.7 45,28.7 45,45.6 	"/>
	<polyline class="st0" points="31,17.3 42.5,28.7 45,28.7 45,45.6 12.9,45.7 12.9,28.7 16.4,28.7 29.8,16.1 31,17.3 	"/>
	<rect x="39.1" y="14.1" class="st0" width="3.2" height="3.1"/>
	<line class="st0" x1="37.8" y1="13.8" x2="43.7" y2="13.8"/>
	<rect x="25.8" y="35.5" class="st0" width="7.1" height="9.8"/>
	<rect x="25" y="43.8" class="st2" width="9.1" height="2.4"/>
	<rect x="25" y="43.8" class="st0" width="9.1" height="2.4"/>
	<rect x="37.2" y="32.1" class="st0" width="3.8" height="3.5"/>
	<rect x="27.1" y="26" class="st0" width="3.8" height="3.5"/>
	<rect x="16.2" y="32.1" class="st0" width="3.8" height="3.5"/>
</g>
</svg>
