<?xml version="1.0" encoding="utf-8"?>
<!-- Generator: Adobe Illustrator 21.1.0, SVG Export Plug-In . SVG Version: 6.00 Build 0)  -->
<svg version="1.1" id="Calque_1" xmlns="http://www.w3.org/2000/svg" xmlns:xlink="http://www.w3.org/1999/xlink" x="0px" y="0px"
	 viewBox="0 0 56.7 56.7" style="enable-background:new 0 0 56.7 56.7;" xml:space="preserve">
<style type="text/css">
	.st0{fill:none;stroke:#66AAE0;stroke-linejoin:round;stroke-miterlimit:10;}
</style>
<g>
	<path class="st0" d="M15.3,32.4c-0.2,0-0.3-0.1-0.3-0.3v-5.3c0-0.2,0.1-0.3,0.3-0.3h4.5c0.2,0,0.3,0.1,0.3,0.3v5.3
		c0,0.2-0.1,0.3-0.3,0.3H15.3z"/>
	<circle class="st0" cx="24.3" cy="20" r="2.5"/>
	<ellipse class="st0" cx="31.5" cy="29.5" rx="2.5" ry="3.3"/>
	<polygon class="st0" points="43.3,33.3 39.4,29.5 43.3,25.6 47.2,29.5 	"/>
	<line class="st0" x1="39.4" y1="29.5" x2="34.2" y2="29.5"/>
	<line class="st0" x1="51.1" y1="29.5" x2="47.2" y2="29.5"/>
	<line class="st0" x1="28.9" y1="29.5" x2="20.2" y2="29.5"/>
	<line class="st0" x1="24.2" y1="23" x2="24.2" y2="29.4"/>
	<line class="st0" x1="21.5" y1="20" x2="7.9" y2="20"/>
</g>
<path class="st0" d="M48.8,12.2H10.1c-1.3,0-2.3,1-2.3,2.3v26.3c0,1.3,1,2.3,2.3,2.3h14.7v1.9L20.5,48c-0.3,0.2-0.4,0.5-0.3,0.9
	c0.1,0.3,0.4,0.6,0.7,0.6h17c0.3,0,0.6-0.2,0.7-0.6s0-0.7-0.3-0.9l-4.3-2.9v-1.9h14.7c1.3,0,2.3-1,2.3-2.3V14.5
	C51.2,13.3,50.1,12.2,48.8,12.2z"/>
<line class="st0" x1="7.8" y1="38.3" x2="51.2" y2="38.3"/>
<line class="st0" x1="24.8" y1="43.2" x2="34.1" y2="43.2"/>
<line class="st0" x1="26.3" y1="41" x2="32.7" y2="41"/>
</svg>
