<?xml version="1.0" encoding="utf-8"?>
<!-- Generator: Adobe Illustrator 21.1.0, SVG Export Plug-In . SVG Version: 6.00 Build 0)  -->
<svg version="1.1" id="Calque_1" xmlns="http://www.w3.org/2000/svg" xmlns:xlink="http://www.w3.org/1999/xlink" x="0px" y="0px"
	 viewBox="0 0 56.7 56.7" style="enable-background:new 0 0 56.7 56.7;" xml:space="preserve">
<style type="text/css">
	.st0{fill:none;stroke:#66AAE0;stroke-linecap:round;stroke-linejoin:round;stroke-miterlimit:10;}
</style>
<path class="st0" d="M33.3,25.5h-3.5c-0.3-0.5-0.8-0.8-1.4-0.8c-0.9,0-1.7,0.7-1.7,1.7c0,0.9,0.7,1.7,1.7,1.7c0.6,0,1.1-0.3,1.4-0.8
	h3.5 M38.3,25.5h-5c-0.4-2.4-2.4-4.1-4.9-4.1c-2.7,0-5,2.2-5,5c0,2.7,2.2,5,5,5c2.5,0,4.5-1.8,4.9-4.1h5.2 M28.4,16.4
	c-5.5,0-9.9,4.5-10,10c0,5.5,4.5,9.9,10,10c5.2,0,9.5-4,9.9-9.1h2.2l1,1c-0.5,3.9-2.8,7.2-5.9,9.3C34.8,38,34.2,39,34.2,40v3.7
	c0,0.5-0.4,0.8-0.8,0.8h-10c-0.5,0-0.8-0.4-0.8-0.8V40c0-1-0.5-2-1.4-2.5c-3.7-2.4-6.1-6.5-6.1-11.1c0-7.3,5.9-13.3,13.3-13.3
	c6.7,0,12.2,5,13.1,11.4l-1,1h-2.2C37.9,20.4,33.6,16.4,28.4,16.4z M46.7,26.7l1.1,2.1h-3.3L42,26.3l2.5-2.5h3.3L46.7,26
	C46.6,26.2,46.6,26.5,46.7,26.7z"/>
<path class="st0" d="M32.7,50.5c0,0.6-0.5,1.2-1.2,1.2h-6.4c-0.6,0-1.2-0.5-1.2-1.2v-5.8h8.7L32.7,50.5L32.7,50.5z"/>
<line class="st0" x1="33.7" y1="46.3" x2="23.4" y2="47.3"/>
<line class="st0" x1="33.7" y1="48.6" x2="23.4" y2="49.6"/>
<line class="st0" x1="14.1" y1="34.5" x2="9.8" y2="37"/>
<line class="st0" x1="42.5" y1="34.1" x2="46.8" y2="36.6"/>
<line class="st0" x1="44.6" y1="25.9" x2="49.6" y2="25.9"/>
<line class="st0" x1="12.6" y1="30.9" x2="10.1" y2="31.5"/>
<line class="st0" x1="17.1" y1="38.1" x2="15.2" y2="40"/>
<line class="st0" x1="40.3" y1="37.5" x2="42.2" y2="39.4"/>
<g>
	<line class="st0" x1="11.8" y1="26.3" x2="6.9" y2="26.3"/>
	<line class="st0" x1="16.5" y1="14.9" x2="14.6" y2="13"/>
	<line class="st0" x1="12.4" y1="22.3" x2="9.9" y2="21.7"/>
	<line class="st0" x1="13.9" y1="18.1" x2="9.6" y2="15.6"/>
</g>
<g>
	<line class="st0" x1="28.1" y1="9.9" x2="28.1" y2="7.2"/>
	<line class="st0" x1="20" y1="12.2" x2="18.6" y2="10"/>
	<line class="st0" x1="24" y1="10.3" x2="22.7" y2="5.5"/>
</g>
<g>
	<line class="st0" x1="39.8" y1="14.6" x2="41.7" y2="12.7"/>
	<line class="st0" x1="32.4" y1="10.5" x2="33" y2="8"/>
	<line class="st0" x1="36.6" y1="12" x2="39.1" y2="7.7"/>
</g>
</svg>
