<?xml version="1.0" encoding="utf-8"?>
<!-- Generator: Adobe Illustrator 21.1.0, SVG Export Plug-In . SVG Version: 6.00 Build 0)  -->
<svg version="1.1" id="Calque_1" xmlns="http://www.w3.org/2000/svg" xmlns:xlink="http://www.w3.org/1999/xlink" x="0px" y="0px"
	 viewBox="0 0 56.7 56.7" style="enable-background:new 0 0 56.7 56.7;" xml:space="preserve">
<style type="text/css">
	.st0{fill:none;stroke:#66AAE0;stroke-linecap:round;stroke-linejoin:round;stroke-miterlimit:10;}
</style>
<polygon class="st0" points="49.3,47.6 47.5,47.5 43.7,49.3 43.7,21.1 47.6,21.1 "/>
<path class="st0" d="M31.4,10.5c0.4-0.1,0.8-0.1,1.2-0.1c4.1,0,7.5,3.4,7.5,7.5V21"/>
<path class="st0" d="M25.1,21v-3.1c0-2.2,1-4.3,2.6-5.6"/>
<path class="st0" d="M30.7,13.4c-1.8,0.7-3,2.5-3,4.5v3.2"/>
<path class="st0" d="M37.5,21.1V18c0-2.2-1.4-4-3.4-4.7"/>
<path class="st0" d="M43.7,21.1h-8.6V17c0-4.1-3.4-7.5-7.5-7.5s-7.5,3.4-7.5,7.5v4.1h-7.2l-0.3,5.3 M12.1,37.7l-0.9,11.6h32.5
	 M22.7,17.1c0-2.7,2.2-4.9,4.9-4.9s4.9,2.2,4.9,4.9v4.1h-9.8V17.1z"/>
<g>
	<path class="st0" d="M13,26.5l2.7,3.9L13.5,38l-7.1-2.1l2.2-7.6L13,26.5z"/>
	<circle class="st0" cx="11.9" cy="30.3" r="1.1"/>
</g>
<path class="st0" d="M47.5,47.5"/>
</svg>
