<?xml version="1.0" encoding="utf-8"?>
<!-- Generator: Adobe Illustrator 21.1.0, SVG Export Plug-In . SVG Version: 6.00 Build 0)  -->
<svg version="1.1" id="Calque_1" xmlns="http://www.w3.org/2000/svg" xmlns:xlink="http://www.w3.org/1999/xlink" x="0px" y="0px"
	 viewBox="0 0 56.7 56.7" style="enable-background:new 0 0 56.7 56.7;" xml:space="preserve">
<style type="text/css">
	.st0{fill:none;stroke:#66AAE0;stroke-linecap:round;stroke-miterlimit:10;}
</style>
<g>
	<line class="st0" x1="7.8" y1="46.1" x2="48.3" y2="46.1"/>
	<polyline class="st0" points="7.9,25.5 20.5,25.5 29,22 36.4,25.3 49.5,25.3 	"/>
	<path class="st0" d="M25.6,15.9c0-1.7,1.4-3.2,3.2-3.2c1.7,0,3.2,1.4,3.2,3.2"/>
	<path class="st0" d="M19.7,24.6c0-5,4-9,9-9c5,0,9,4,9,9"/>
	<line class="st0" x1="28.6" y1="9.5" x2="28.6" y2="12.2"/>
	<line class="st0" x1="9.3" y1="29.6" x2="9.3" y2="42.2"/>
	<line class="st0" x1="14" y1="29.6" x2="14" y2="42.2"/>
	<line class="st0" x1="18.6" y1="29.6" x2="18.6" y2="42.2"/>
	<line class="st0" x1="23.2" y1="29.6" x2="23.2" y2="42.2"/>
	<line class="st0" x1="33.6" y1="29.6" x2="33.6" y2="42.2"/>
	<line class="st0" x1="38.2" y1="29.6" x2="38.2" y2="42.2"/>
	<line class="st0" x1="42.8" y1="29.6" x2="42.8" y2="42.2"/>
	<line class="st0" x1="47.5" y1="29.6" x2="47.5" y2="42.2"/>
</g>
</svg>
