<?xml version="1.0" encoding="utf-8"?>
<!-- Generator: Adobe Illustrator 21.1.0, SVG Export Plug-In . SVG Version: 6.00 Build 0)  -->
<svg version="1.1" id="Calque_1" xmlns="http://www.w3.org/2000/svg" xmlns:xlink="http://www.w3.org/1999/xlink" x="0px" y="0px"
	 viewBox="0 0 56.7 56.7" style="enable-background:new 0 0 56.7 56.7;" xml:space="preserve">
<style type="text/css">
	.st0{fill:none;stroke:#66AAE0;stroke-linecap:round;stroke-miterlimit:10;}
	.st1{fill:none;stroke:#66AAE0;stroke-width:2;stroke-linecap:round;stroke-miterlimit:10;}
</style>
<path class="st0" d="M28.9,46.6c0,0,2.8,0.1,8.1,0.1c4.3-3,5.7-6.6,5.5-12.7c-0.1-6.1-10.7-14.9-10.7-14.9l4-4.7
	c0,0-1.1-1.3-2.9-0.6c-2.4,1-1.8-1.3-4.2-1.3h-0.1c-2.3,0-1.7,2.3-4.2,1.3c-1.7-0.7-2.9,0.6-2.9,0.6l4,4.7c0,0-10.6,8.8-10.7,14.9
	c-0.1,6.1,1.3,9.7,5.5,12.7c5.3,0,8.1-0.1,8.1-0.1H28.9z"/>
<line class="st1" x1="24.1" y1="18.9" x2="33.2" y2="18.9"/>
<path class="st0" d="M33.6,39.1c-1.1,1.1-2.6,1.8-4.2,1.8c-3.3,0-6-2.7-6-6c0-3.3,2.7-6,6-6c1.9,0,3.6,0.9,4.7,2.3"/>
<g>
	<line class="st0" x1="21.3" y1="33.4" x2="27.7" y2="33.4"/>
	<line class="st0" x1="21.3" y1="36.2" x2="27.7" y2="36.2"/>
</g>
</svg>
