<?xml version="1.0" encoding="utf-8"?>
<!-- Generator: Adobe Illustrator 21.1.0, SVG Export Plug-In . SVG Version: 6.00 Build 0)  -->
<svg version="1.1" id="Calque_1" xmlns="http://www.w3.org/2000/svg" xmlns:xlink="http://www.w3.org/1999/xlink" x="0px" y="0px"
	 viewBox="0 0 56.7 56.7" style="enable-background:new 0 0 56.7 56.7;" xml:space="preserve">
<style type="text/css">
	.st0{fill:none;stroke:#66AAE0;stroke-linecap:round;stroke-linejoin:round;stroke-miterlimit:10;}
	.st1{fill:none;stroke:#66AAE0;stroke-linecap:round;stroke-miterlimit:10;}
</style>
<line class="st0" x1="25.6" y1="23.2" x2="31.8" y2="23.2"/>
<path class="st0" d="M17.8,32c0,0,4.1,1.9,10.3,1.9S39.5,32,39.5,32"/>
<line class="st0" x1="31.8" y1="37.3" x2="24.8" y2="37.3"/>
<line class="st0" x1="31.8" y1="39.4" x2="24.8" y2="39.4"/>
<path class="st0" d="M38.1,24.8"/>
<path class="st0" d="M19.7,24.8"/>
<path class="st1" d="M22.1,44v1.3c0,1.5-1.2,1.7-2.7,1.7l0,0c-1.5,0-2.7-0.2-2.7-1.7V44"/>
<path class="st1" d="M40.2,44v1.3c0,1.5-1.2,1.7-2.7,1.7l0,0c-1.5,0-2.7-0.2-2.7-1.7V44"/>
<path class="st1" d="M40.1,31.5h-0.3L39,32l-1-8c0-1.6-1.3-2.8-2.8-2.8h-6.5h-0.6h-6.5c-1.6,0-2.8,1.3-2.8,2.8l-1,8L17,31.5h-0.3
	c-1.5,0-2.7,0.2-2.7,1.7v1c0,1.5,0.2,1.7,1.7,1.7h0.4c-0.2,1.9-0.3,2.5-0.3,7.8h11.8h1.8h11.8c0-5.2-0.1-5.9-0.3-7.8h0.4
	c1.5,0,1.7-0.2,1.7-1.7v-1C42.8,31.7,41.6,31.5,40.1,31.5z"/>
<circle class="st1" cx="21.1" cy="37.9" r="2.3"/>
<circle class="st1" cx="35.8" cy="37.9" r="2.3"/>
</svg>
