<?xml version="1.0" encoding="utf-8"?>
<!-- Generator: Adobe Illustrator 21.1.0, SVG Export Plug-In . SVG Version: 6.00 Build 0)  -->
<svg version="1.1" id="Calque_1" xmlns="http://www.w3.org/2000/svg" xmlns:xlink="http://www.w3.org/1999/xlink" x="0px" y="0px"
	 viewBox="0 0 56.7 56.7" style="enable-background:new 0 0 56.7 56.7;" xml:space="preserve">
<style type="text/css">
	.st0{fill:none;stroke:#67A9DD;stroke-width:2;stroke-miterlimit:10;}
</style>
<polyline class="st0" points="36.6,22.9 36.6,12.5 26.7,12.5 "/>
<polyline class="st0" points="21.5,35.1 21.5,45.4 31.4,45.4 "/>
<line class="st0" x1="3.1" y1="46" x2="35.2" y2="13.9"/>
<line class="st0" x1="22" y1="44.3" x2="53.5" y2="12.9"/>
<path class="st0" d="M52,19.6c1,2.7,1.6,5.6,1.6,8.7c0,13.2-10.7,24-24,24c-7.6,0-14.3-3.5-18.7-8.9"/>
<path class="st0" d="M7.5,37.4c-1.1-2.8-1.8-5.9-1.8-9.1c0-13.2,10.7-24,24-24c7.6,0,14.4,3.6,18.8,9.1"/>
</svg>
