<?xml version="1.0" encoding="utf-8"?>
<!-- Generator: Adobe Illustrator 21.1.0, SVG Export Plug-In . SVG Version: 6.00 Build 0)  -->
<svg version="1.1" id="Calque_1" xmlns="http://www.w3.org/2000/svg" xmlns:xlink="http://www.w3.org/1999/xlink" x="0px" y="0px"
	 viewBox="0 0 56.7 56.7" style="enable-background:new 0 0 56.7 56.7;" xml:space="preserve">
<style type="text/css">
	.st0{fill:none;stroke:#66AAE0;stroke-linecap:round;stroke-miterlimit:10;}
	.st1{fill:none;stroke:#66AAE0;stroke-linejoin:round;stroke-miterlimit:10;}
</style>
<g>
	<path class="st0" d="M46.5,45.3l-34.8-0.2c-1.3,0-2.4-1.1-2.4-2.4v-18c0-1.3,1.1-2.4,2.4-2.4l34.8,0.2c1.3,0,2.4,1.1,2.4,2.4v18
		C48.9,44.2,47.8,45.3,46.5,45.3z"/>
	<line class="st1" x1="18.5" y1="44.7" x2="18.5" y2="22.4"/>
	<line class="st1" x1="16.4" y1="44.7" x2="16.4" y2="22.4"/>
	<line class="st1" x1="41.4" y1="44.7" x2="41.4" y2="22.4"/>
	<line class="st1" x1="39.3" y1="44.7" x2="39.3" y2="22.4"/>
</g>
<path class="st1" d="M35.8,22.4h-2.5v-2.8c0-0.1-0.1-0.2-0.2-0.2h-7.9c-0.1,0-0.2,0.1-0.2,0.2v0.1v2.7h-2.5v-2.6c0-0.1,0-0.1,0-0.2
	c0-1.5,1.2-2.7,2.7-2.7h7.9c1.5,0,2.7,1.2,2.7,2.7V22.4z"/>
</svg>
