<?xml version="1.0" encoding="utf-8"?>
<!-- Generator: Adobe Illustrator 21.1.0, SVG Export Plug-In . SVG Version: 6.00 Build 0)  -->
<svg version="1.1" id="Calque_1" xmlns="http://www.w3.org/2000/svg" xmlns:xlink="http://www.w3.org/1999/xlink" x="0px" y="0px"
	 viewBox="0 0 56.7 56.7" style="enable-background:new 0 0 56.7 56.7;" xml:space="preserve">
<style type="text/css">
	.st0{fill:none;stroke:#66AAE0;stroke-linecap:round;stroke-linejoin:round;stroke-miterlimit:10;}
</style>
<path class="st0" d="M46.7,18.1c-2.3,0-4.1,1.9-4.1,4.1c0,0.9,0.3,1.7,0.7,2.4l-5.1,6.3c-0.5-0.2-1-0.3-1.6-0.3
	c-1.4,0-2.7,0.7-3.5,1.9l-7.4-2.3c0,0,0,0,0-0.1c0-2.3-1.9-4.1-4.1-4.1s-4.1,1.9-4.1,4.1c0,0.9,0.3,1.7,0.8,2.4l-4.1,5.2
	c-0.5-0.2-1-0.3-1.6-0.3c-2.3,0-4.1,1.9-4.1,4.1c0,2.3,1.9,4.1,4.1,4.1c2.3,0,4.1-1.9,4.1-4.1c0-0.9-0.3-1.7-0.8-2.4l4.1-5.2
	c0.5,0.2,1,0.3,1.6,0.3c1.4,0,2.7-0.7,3.5-1.9l7.4,2.3c0,0,0,0,0,0.1c0,2.3,1.9,4.1,4.1,4.1c2.3,0,4.1-1.9,4.1-4.1
	c0-0.9-0.3-1.7-0.7-2.4l5.1-6.3c0.5,0.2,1,0.3,1.6,0.3c2.3,0,4.1-1.9,4.1-4.1C50.8,20,49,18.1,46.7,18.1z"/>
</svg>
