<?xml version="1.0" encoding="utf-8"?>
<!-- Generator: Adobe Illustrator 21.1.0, SVG Export Plug-In . SVG Version: 6.00 Build 0)  -->
<svg version="1.1" id="Calque_1" xmlns="http://www.w3.org/2000/svg" xmlns:xlink="http://www.w3.org/1999/xlink" x="0px" y="0px"
	 viewBox="0 0 56.7 56.7" style="enable-background:new 0 0 56.7 56.7;" xml:space="preserve">
<style type="text/css">
	.st0{fill:none;stroke:#66AAE0;stroke-linecap:round;stroke-linejoin:round;stroke-miterlimit:10;}
</style>
<path class="st0" d="M26.9,32.7v-7.8c0-1.6-1-3.1-2.6-3.6l-2.1-0.7c-0.3-0.1-0.6,0-0.9,0.2l-3.6,3.6l-3.6-3.6
	c-0.2-0.2-0.6-0.3-0.9-0.2l-2.2,0.7c-1.5,0.5-2.6,1.9-2.6,3.6v7.8 M17.7,20.5c2.7,0,5-2.2,5-5c0-2.8-2.2-5-5-5s-5,2.2-5,5
	S15,20.5,17.7,20.5z"/>
<line class="st0" x1="23.5" y1="32.7" x2="23.5" y2="26.7"/>
<line class="st0" x1="11.9" y1="32.7" x2="11.9" y2="26.7"/>
<path class="st0" d="M28.9,46.2h-9.1c-1.7,0-3.1-1.4-3.1-3.1v-0.1v-6.3"/>
<path class="st0" d="M28.9,15.2H38c1.7,0,3.1,1.4,3.1,3.1v0.1v6.6"/>
<line class="st0" x1="8.5" y1="32.7" x2="26.9" y2="32.7"/>
<path class="st0" d="M50,50.9v-7.8c0-1.6-1-3.1-2.6-3.6l-2.1-0.7c-0.3-0.1-0.6,0-0.9,0.2l-3.6,3.6L37.3,39c-0.2-0.2-0.6-0.3-0.9-0.2
	l-2.2,0.7c-1.5,0.5-2.6,1.9-2.6,3.6v7.8 M40.9,38.8c2.8,0,5-2.2,5-5c0-2.8-2.2-5-5-5c-2.7,0-5,2.2-5,5S38.1,38.8,40.9,38.8z"/>
<line class="st0" x1="46.7" y1="50.9" x2="46.7" y2="45"/>
<line class="st0" x1="35" y1="50.9" x2="35" y2="45"/>
</svg>
