<?xml version="1.0" encoding="utf-8"?>
<!-- Generator: Adobe Illustrator 21.1.0, SVG Export Plug-In . SVG Version: 6.00 Build 0)  -->
<svg version="1.1" id="Calque_1" xmlns="http://www.w3.org/2000/svg" xmlns:xlink="http://www.w3.org/1999/xlink" x="0px" y="0px"
	 viewBox="0 0 56.7 56.7" style="enable-background:new 0 0 56.7 56.7;" xml:space="preserve">
<style type="text/css">
	.st0{fill:none;stroke:#66AAE0;stroke-linejoin:round;stroke-miterlimit:10;}
</style>
<path class="st0" d="M34.7,13h12.5v29.1H34.7c-1.6,0-3.2,0.6-4.4,1.7V15.7C31.1,14,32.8,13,34.7,13z M11.7,13h12.5
	c1.8,0,3.5,1,4.4,2.6v28.1c-1.2-1.1-2.8-1.7-4.4-1.7H11.7V13z M48.8,16.2h1.6v29.1H36.3c-2.2,0-4.2,1.1-5.5,2.9
	c-0.2,0.2-0.4,0.4-0.6,0.4h-1.6c-0.2,0-0.4-0.1-0.6-0.4c-1.2-1.8-3.3-2.9-5.5-2.9H8.5V16.2h1.6"/>
</svg>
