<?xml version="1.0" encoding="utf-8"?>
<!-- Generator: Adobe Illustrator 21.1.0, SVG Export Plug-In . SVG Version: 6.00 Build 0)  -->
<svg version="1.1" id="Calque_1" xmlns="http://www.w3.org/2000/svg" xmlns:xlink="http://www.w3.org/1999/xlink" x="0px" y="0px"
	 viewBox="0 0 56.7 56.7" style="enable-background:new 0 0 56.7 56.7;" xml:space="preserve">
<style type="text/css">
	.st0{fill:#67A9DD;}
</style>
<path class="st0" d="M33.9,48.3h-10c-0.3,0-0.5,0.1-0.7,0.3c-0.2,0.2-0.3,0.4-0.3,0.7v4c0,0.5,0.4,1,1,1s1-0.5,1-1v-3h8v3
	c0,0.5,0.4,1,1,1s1-0.5,1-1v-4c0-0.3-0.1-0.5-0.3-0.7C34.4,48.4,34.2,48.3,33.9,48.3z M53.9,52.3L53.9,52.3h-2v-31
	c0-0.3-0.1-0.5-0.3-0.7c-0.2-0.2-0.4-0.3-0.7-0.3h-9v-7c0-0.3-0.1-0.5-0.3-0.7c-0.2-0.2-0.4-0.3-0.7-0.3h-4v-3
	c0-0.3-0.1-0.5-0.3-0.7c-0.2-0.2-0.4-0.3-0.7-0.3h-4v-3c0-1.7-1.3-3-3-3s-3,1.3-3,3v3h-4c-0.3,0-0.5,0.1-0.7,0.3S20.9,9,20.9,9.3v3
	h-4c-0.3,0-0.5,0.1-0.7,0.3s-0.3,0.4-0.3,0.7v7h-9c-0.3,0-0.5,0.1-0.7,0.3S5.9,21,5.9,21.3v31h-2c-0.6,0-1,0.4-1,1c0,0.5,0.4,1,1,1
	h13c0.3,0,0.5-0.1,0.7-0.3c0.2-0.2,0.3-0.4,0.3-0.7v-39h22v39c0,0.3,0.1,0.5,0.3,0.7c0.2,0.2,0.4,0.3,0.7,0.3h13c0.6,0,1-0.4,1-1
	S54.5,52.3,53.9,52.3z M15.9,52.3h-8v-30h8V52.3z M27.9,5.3c0-0.6,0.4-1,1-1s1,0.4,1,1v3h-2V5.3z M34.9,12.3h-12v-2h12V12.3z
	 M49.9,52.3h-8v-30h8V52.3z M36.9,42.3h-16c-0.6,0-1,0.4-1,1c0,0.5,0.4,1,1,1h16c0.6,0,1-0.5,1-1C37.9,42.7,37.5,42.3,36.9,42.3z
	 M36.9,36.3h-16c-0.6,0-1,0.4-1,1s0.4,1,1,1h16c0.6,0,1-0.4,1-1S37.5,36.3,36.9,36.3z M10.9,28.3h2c0.6,0,1-0.4,1-1s-0.4-1-1-1h-2
	c-0.6,0-1,0.4-1,1S10.3,28.3,10.9,28.3z M10.9,32.3h2c0.6,0,1-0.4,1-1s-0.4-1-1-1h-2c-0.6,0-1,0.4-1,1S10.3,32.3,10.9,32.3z
	 M12.9,34.3h-2c-0.6,0-1,0.4-1,1s0.4,1,1,1h2c0.6,0,1-0.4,1-1S13.5,34.3,12.9,34.3z M10.9,40.3h2c0.6,0,1-0.4,1-1s-0.4-1-1-1h-2
	c-0.6,0-1,0.4-1,1S10.3,40.3,10.9,40.3z M12.9,42.3h-2c-0.6,0-1,0.4-1,1c0,0.5,0.4,1,1,1h2c0.6,0,1-0.5,1-1
	C13.9,42.7,13.5,42.3,12.9,42.3z M12.9,46.3h-2c-0.6,0-1,0.4-1,1s0.4,1,1,1h2c0.6,0,1-0.4,1-1S13.5,46.3,12.9,46.3z M44.9,28.3h2
	c0.6,0,1-0.4,1-1s-0.4-1-1-1h-2c-0.6,0-1,0.4-1,1S44.3,28.3,44.9,28.3z M44.9,32.3h2c0.6,0,1-0.4,1-1s-0.4-1-1-1h-2
	c-0.6,0-1,0.4-1,1S44.3,32.3,44.9,32.3z M44.9,36.3h2c0.6,0,1-0.4,1-1s-0.4-1-1-1h-2c-0.6,0-1,0.4-1,1S44.3,36.3,44.9,36.3z
	 M44.9,40.3h2c0.6,0,1-0.4,1-1s-0.4-1-1-1h-2c-0.6,0-1,0.4-1,1S44.3,40.3,44.9,40.3z M46.9,42.3h-2c-0.6,0-1,0.4-1,1
	c0,0.5,0.4,1,1,1h2c0.6,0,1-0.4,1-1S47.5,42.3,46.9,42.3z M46.9,46.3h-2c-0.6,0-1,0.4-1,1s0.4,1,1,1h2c0.6,0,1-0.4,1-1
	S47.5,46.3,46.9,46.3z M20.9,30.3c-0.6,0-1,0.4-1,1s0.4,1,1,1h16c0.6,0,1-0.4,1-1s-0.4-1-1-1H20.9z M36.9,24.3h-16c-0.6,0-1,0.4-1,1
	s0.4,1,1,1h16c0.6,0,1-0.4,1-1S37.5,24.3,36.9,24.3z M36.9,18.3h-16c-0.6,0-1,0.4-1,1s0.4,1,1,1h16c0.6,0,1-0.4,1-1
	S37.5,18.3,36.9,18.3z"/>
</svg>
