<?xml version="1.0" encoding="utf-8"?>
<!-- Generator: Adobe Illustrator 21.1.0, SVG Export Plug-In . SVG Version: 6.00 Build 0)  -->
<svg version="1.1" id="Calque_1" xmlns="http://www.w3.org/2000/svg" xmlns:xlink="http://www.w3.org/1999/xlink" x="0px" y="0px"
	 viewBox="0 0 56.7 56.7" style="enable-background:new 0 0 56.7 56.7;" xml:space="preserve">
<style type="text/css">
	.st0{fill:none;stroke:#66AAE0;stroke-linecap:round;stroke-miterlimit:10;}
</style>
<polygon class="st0" points="30.4,48.2 32.1,46.8 29.8,46.8 28.7,44.3 28,46.8 25.6,46.8 27.6,48.2 26.9,51.1 29.1,49.3 31.6,51 "/>
<polygon class="st0" points="30.4,11.1 32.1,9.7 29.8,9.7 28.7,7.2 28,9.7 25.6,9.7 27.6,11.2 26.9,14.1 29.1,12.2 31.6,14 "/>
<polygon class="st0" points="39.6,14.1 41.3,12.7 39,12.7 37.9,10.1 37.2,12.7 34.8,12.7 36.9,14.1 36.1,17 38.3,15.2 40.8,16.9 "/>
<polygon class="st0" points="46.1,20.7 47.7,19.4 45.5,19.4 44.4,16.8 43.7,19.4 41.3,19.4 43.3,20.8 42.5,23.7 44.8,21.8 
	47.3,23.6 "/>
<polygon class="st0" points="48.6,30 50.3,28.6 48,28.6 47,26 46.3,28.6 43.8,28.6 45.9,30 45.1,32.9 47.3,31 49.8,32.8 "/>
<polygon class="st0" points="46.3,39.4 47.9,38 45.7,38 44.6,35.4 43.9,38 41.5,38 43.5,39.4 42.7,42.3 45,40.4 47.4,42.2 "/>
<polygon class="st0" points="39.6,45.6 41.3,44.3 39,44.3 37.9,41.7 37.2,44.3 34.8,44.3 36.9,45.7 36.1,48.6 38.3,46.7 40.8,48.5 
	"/>
<polygon class="st0" points="21,45.6 22.6,44.3 20.4,44.3 19.3,41.7 18.6,44.3 16.2,44.3 18.2,45.7 17.5,48.6 19.7,46.7 22.2,48.5 
	"/>
<polygon class="st0" points="14.5,39 16.2,37.6 13.9,37.6 12.8,35 12.2,37.6 9.7,37.6 11.8,39 11,41.9 13.2,40.1 15.7,41.8 "/>
<polygon class="st0" points="14.7,21.1 16.4,19.7 14.1,19.7 13,17.2 12.3,19.7 9.9,19.7 12,21.2 11.2,24.1 13.4,22.2 15.9,24 "/>
<polygon class="st0" points="21.4,14.1 23,12.7 20.8,12.7 19.7,10.1 19,12.7 16.6,12.7 18.6,14.1 17.8,17 20.1,15.2 22.5,16.9 "/>
<polygon class="st0" points="12,30 13.6,28.6 11.4,28.6 10.3,26 9.6,28.6 7.2,28.6 9.2,30 8.4,32.9 10.7,31 13.1,32.8 "/>
</svg>
