<?xml version="1.0" encoding="utf-8"?>
<!-- Generator: Adobe Illustrator 21.1.0, SVG Export Plug-In . SVG Version: 6.00 Build 0)  -->
<svg version="1.1" id="Calque_1" xmlns="http://www.w3.org/2000/svg" xmlns:xlink="http://www.w3.org/1999/xlink" x="0px" y="0px"
	 viewBox="0 0 56.7 56.7" style="enable-background:new 0 0 56.7 56.7;" xml:space="preserve">
<style type="text/css">
	.st0{fill:none;stroke:#66AAE0;stroke-linecap:round;stroke-linejoin:round;stroke-miterlimit:10;}
	.st1{fill:#66AAE0;}
</style>
<g>
	<path class="st0" d="M41.8,47.3H15.1c-1.7,0-3.1-1.4-3.1-3.1V28.5c0-1.7,1.4-3.1,3.1-3.1h26.8c1.7,0,3.1,1.4,3.1,3.1v15.7
		C45,45.9,43.6,47.3,41.8,47.3z"/>
	<path class="st0" d="M34.3,25.4v-5.3c0-3.2-2.6-5.8-5.8-5.8s-5.8,2.6-5.8,5.8v5.3"/>
	<path class="st0" d="M18.9,25.4v-5.3c0-5.3,4.3-9.6,9.6-9.6s9.6,4.3,9.6,9.6v5.3"/>
	<path class="st1" d="M28.5,31.9c-1.2,0-2.2,1-2.2,2.2c0,0.8,0.4,1.5,1.1,1.9v3.6c0,0.6,0.5,1.1,1.1,1.1s1.1-0.5,1.1-1.1V36
		c0.7-0.4,1.1-1.1,1.1-1.9C30.7,32.9,29.7,31.9,28.5,31.9z"/>
</g>
</svg>
