<?xml version="1.0" encoding="utf-8"?>
<!-- Generator: Adobe Illustrator 21.1.0, SVG Export Plug-In . SVG Version: 6.00 Build 0)  -->
<svg version="1.1" id="Calque_1" xmlns="http://www.w3.org/2000/svg" xmlns:xlink="http://www.w3.org/1999/xlink" x="0px" y="0px"
	 viewBox="0 0 56.7 56.7" style="enable-background:new 0 0 56.7 56.7;" xml:space="preserve">
<style type="text/css">
	.st0{fill:none;stroke:#66AAE0;stroke-linecap:round;stroke-linejoin:round;stroke-miterlimit:10;}
</style>
<g>
	<path class="st0" d="M30.8,41.8C30.8,41.8,30.8,41.8,30.8,41.8L30.8,41.8c1.1,0.1,1.8,0.1,2.8,0l0.6-3.9c0-0.3,0.3-0.5,0.6-0.6
		c1.3-0.3,2.5-0.8,3.7-1.5c0.3-0.2,0.6-0.1,0.8,0l3.2,2.4c0.7-0.6,1.4-1.3,1.9-1.9L41.9,33c-0.2-0.2-0.2-0.6,0-0.8
		c0.7-1.1,1.2-2.4,1.5-3.7c0.1-0.3,0.3-0.5,0.6-0.6l3.9-0.6c0-0.5,0.1-0.9,0.1-1.4c0-0.4,0-0.9-0.1-1.4L44.1,24
		c-0.3,0-0.5-0.3-0.6-0.6c-0.3-1.3-0.8-2.6-1.5-3.7c-0.2-0.3-0.2-0.6,0-0.8l2.4-3.2c-0.6-0.7-1.2-1.3-1.9-1.9l0,0c0,0,0,0,0,0
		l-3.2,2.4c-0.2,0.1-0.4,0.2-0.6,0.1c-0.1,0-0.1,0-0.2-0.1c-1.1-0.7-2.4-1.2-3.7-1.5c-0.3-0.1-0.5-0.3-0.6-0.6l-0.6-3.9
		c0,0,0,0-0.1,0v0c-0.2,0-0.3,0-0.5,0c-0.3,0-0.6,0-0.9,0c-0.5,0-0.9,0-1.4,0.1l-0.6,3.9c0,0.3-0.3,0.5-0.6,0.6
		c-1.3,0.3-2.6,0.8-3.7,1.5c-0.2,0.1-0.4,0.1-0.6,0.1c-0.1,0-0.1-0.1-0.2-0.1L22,13.8c0,0,0,0,0,0l0,0c-0.4,0.3-0.7,0.6-1,0.9
		c-0.3,0.3-0.6,0.7-0.9,1l2.4,3.2c0.2,0.2,0.2,0.6,0,0.8c-0.2,0.3-0.4,0.6-0.5,0.9 M25.1,27.8c-0.3-1.2-0.3-2.5,0-3.7c0,0,0,0,0.1,0
		c0.9-3.1,3.7-5.3,6.9-5.3c0.2,0,0.5,0,0.7,0c1.6,0.2,3.2,0.9,4.4,2.1c0,0,0,0.1,0.1,0.1c0,0,0,0,0,0c1.3,1.3,2.1,3.1,2.1,5.1
		c0,2.7-1.5,5.1-3.7,6.3c0,0,0,0,0,0c-1.9,1.1-4.1,1.2-6,0.5"/>
</g>
<path class="st0" d="M19.6,49c-6.1,0-11.1-5-11.1-11.2c0-6.1,5-11.1,11.1-11.1c6.1,0,11.2,5,11.2,11.1C30.7,44,25.7,49,19.6,49z"/>
<path class="st0" d="M28.5,31l1.4-1.4c0.6-0.6,0.6-1.5,0-2.1c-0.6-0.6-1.6-0.6-2.1,0l-1.4,1.4c-1.4-1.1-3.1-1.8-5-2.1v-2.3h1.4v-2.7
	L22,20.8h-4.6l-0.9,0.9v2.7h1.4v2.3c-1.8,0.3-3.5,1.1-5,2.1l-1.4-1.4c-0.6-0.6-1.6-0.5-2.1,0c-0.3,0.3-0.4,0.7-0.4,1.1
	c0,0.4,0.2,0.8,0.4,1.1l1.4,1.4c-1.4,1.9-2.3,4.2-2.3,6.8c0,6.2,5,11.2,11.2,11.2c6.2,0,11.2-5,11.2-11.2C30.8,35.2,30,32.9,28.5,31
	z"/>
<path class="st0" d="M19.6,38.8c-0.5,0-1-0.4-1-1c0-0.5,0.4-1,1-1c0.3,0,0.5,0.1,0.7,0.3c0,0,0,0,0,0l0,0c0.2,0.2,0.3,0.4,0.3,0.7
	C20.6,38.3,20.2,38.8,19.6,38.8z"/>
<line class="st0" x1="11.1" y1="37.8" x2="13.2" y2="37.8"/>
<line class="st0" x1="13.6" y1="43.8" x2="15.1" y2="42.3"/>
<line class="st0" x1="19.6" y1="46.3" x2="19.6" y2="44.2"/>
<line class="st0" x1="25.7" y1="43.8" x2="24.2" y2="42.3"/>
<line class="st0" x1="28.2" y1="37.8" x2="26" y2="37.8"/>
<line class="st0" x1="25.7" y1="31.7" x2="20.3" y2="37"/>
<line class="st0" x1="19.6" y1="29.2" x2="19.6" y2="31.3"/>
<line class="st0" x1="13.6" y1="31.7" x2="15.1" y2="33.2"/>
<line class="st0" x1="17.9" y1="24.4" x2="21.5" y2="24.4"/>
</svg>
