<?xml version="1.0" encoding="utf-8"?>
<!-- Generator: Adobe Illustrator 21.1.0, SVG Export Plug-In . SVG Version: 6.00 Build 0)  -->
<svg version="1.1" id="Calque_1" xmlns="http://www.w3.org/2000/svg" xmlns:xlink="http://www.w3.org/1999/xlink" x="0px" y="0px"
	 viewBox="0 0 56.7 56.7" style="enable-background:new 0 0 56.7 56.7;" xml:space="preserve">
<style type="text/css">
	.st0{fill:none;stroke:#66AAE0;stroke-linejoin:round;stroke-miterlimit:10;}
	.st1{fill:none;stroke:#66AAE0;stroke-linecap:round;stroke-miterlimit:10;}
	.st2{fill:none;stroke:#66AAE0;stroke-miterlimit:10;}
</style>
<polyline class="st0" points="39.9,12.5 43.5,12.5 43.5,48.9 15.7,48.9 15.7,12.5 19.2,12.5 "/>
<line class="st0" x1="24.2" y1="24.4" x2="39.8" y2="24.4"/>
<line class="st0" x1="24.2" y1="28.2" x2="39.8" y2="28.2"/>
<line class="st0" x1="24.2" y1="32" x2="39.8" y2="32"/>
<line class="st0" x1="24.2" y1="35.9" x2="39.8" y2="35.9"/>
<line class="st0" x1="24.2" y1="39.7" x2="39.8" y2="39.7"/>
<path class="st1" d="M24.3,10V8.4c0-0.7,0.6-1.2,1.2-1.2h8.7c0.7,0,1.2,0.6,1.2,1.3V10"/>
<path class="st1" d="M19.5,14.2v-2.6c0-0.7,0.6-1.2,1.2-1.2H39c0.7,0,1.2,0.6,1.2,1.3v2.5L19.5,14.2L19.5,14.2z"/>
<polyline class="st2" points="21.8,30.7 20,32.6 18.1,30.7 "/>
<polyline class="st2" points="21.8,27 20,28.9 18.1,27.1 "/>
<polyline class="st2" points="21.8,38.1 20,39.9 18.1,38.1 "/>
<polyline class="st2" points="21.8,23.4 20,25.2 18.1,23.4 "/>
</svg>
