<?xml version="1.0" encoding="utf-8"?>
<!-- Generator: Adobe Illustrator 21.1.0, SVG Export Plug-In . SVG Version: 6.00 Build 0)  -->
<svg version="1.1" id="Calque_1" xmlns="http://www.w3.org/2000/svg" xmlns:xlink="http://www.w3.org/1999/xlink" x="0px" y="0px"
	 viewBox="0 0 56.7 56.7" style="enable-background:new 0 0 56.7 56.7;" xml:space="preserve">
<style type="text/css">
	.st0{fill:#66AAE0;}
</style>
<path class="st0" d="M45.2,29.5c0-2.6-0.7-5.1-1.8-7.3c-0.2-0.3-0.4-0.7-0.6-1c-2.1-3.5-5.3-6.1-9.2-7.4c-0.8-0.3-1.6-0.5-2.5-0.6
	c-0.7-0.1-1.5-0.2-2.2-0.2c-0.2,0-0.3,0-0.5,0s-0.3,0-0.5,0c-0.8,0-1.5,0.1-2.2,0.2c-0.9,0.1-1.7,0.3-2.5,0.6
	c-3.9,1.3-7.2,3.9-9.2,7.4c-0.2,0.3-0.4,0.7-0.6,1c-1.1,2.2-1.8,4.7-1.8,7.3c0,0.1,0,0.2,0,0.3c0,0.2,0,0.5,0,0.7
	c0.1,3.2,1.1,6.2,2.8,8.7c0.2,0.3,0.5,0.7,0.7,1c2,2.6,4.8,4.6,8.1,5.7c0.8,0.3,1.6,0.5,2.5,0.6c0.7,0.1,1.5,0.2,2.2,0.2
	c0.2,0,0.3,0,0.5,0s0.3,0,0.5,0c0.8,0,1.5-0.1,2.2-0.2c0.9-0.1,1.7-0.3,2.5-0.6c3.2-1.1,6-3.1,8.1-5.7c0.3-0.3,0.5-0.7,0.7-1
	c1.7-2.5,2.7-5.5,2.8-8.7c0-0.2,0-0.5,0-0.7C45.2,29.7,45.2,29.6,45.2,29.5z M44.2,29.5h-5c0-2.6-0.4-5.1-1-7.3h4.1
	C43.5,24.3,44.2,26.8,44.2,29.5z M19.5,22.1h8.3v7.3h-9.3C18.6,26.8,18.9,24.4,19.5,22.1z M27.9,30.5v8.7h-7.8
	c-0.9-2.5-1.5-5.5-1.6-8.7C18.5,30.5,27.9,30.5,27.9,30.5z M28.9,30.5h9.3c-0.1,3.2-0.6,6.1-1.6,8.7h-7.8L28.9,30.5L28.9,30.5z
	 M28.9,29.5v-7.3h8.3c0.6,2.2,1,4.7,1,7.3H28.9z M41.7,21.1h-3.8c-0.7-2.2-1.7-4.2-2.9-5.7C37.8,16.7,40,18.6,41.7,21.1z M33.1,14.6
	c1.6,1.5,2.9,3.8,3.7,6.5h-8v-7.2C30.3,14,31.8,14.2,33.1,14.6z M27.9,13.9v7.2h-8c0.9-2.7,2.2-5,3.7-6.5
	C24.9,14.2,26.4,14,27.9,13.9z M21.7,15.4c-1.2,1.6-2.1,3.5-2.8,5.7H15C16.7,18.6,19,16.7,21.7,15.4z M14.4,22.1h4.1
	c-0.6,2.2-1,4.7-1,7.3h-5C12.5,26.8,13.2,24.3,14.4,22.1z M12.5,30.5h5c0.1,3.2,0.6,6.1,1.5,8.7h-3.5C13.8,36.7,12.7,33.7,12.5,30.5
	z M16.3,40.1h3.1c0.6,1.5,1.4,2.9,2.2,4C19.6,43.2,17.8,41.8,16.3,40.1z M23.6,44.9c-1.2-1.2-2.3-2.8-3.1-4.8h7.4v5.5
	C26.4,45.6,24.9,45.3,23.6,44.9z M28.9,45.6v-5.5h7.4c-0.8,2-1.9,3.6-3.1,4.8C31.8,45.3,30.3,45.6,28.9,45.6z M35.1,44.1
	c0.9-1.1,1.6-2.5,2.2-4h3.1C38.9,41.8,37.1,43.2,35.1,44.1z M41.2,39.1h-3.5c0.9-2.6,1.4-5.5,1.5-8.7h5C44.1,33.7,43,36.7,41.2,39.1
	z"/>
</svg>
