<?xml version="1.0" encoding="utf-8"?>
<!-- Generator: Adobe Illustrator 21.1.0, SVG Export Plug-In . SVG Version: 6.00 Build 0)  -->
<svg version="1.1" id="Calque_1" xmlns="http://www.w3.org/2000/svg" xmlns:xlink="http://www.w3.org/1999/xlink" x="0px" y="0px"
	 viewBox="0 0 27.3333 53.1667" enable-background="new 0 0 27.3333 53.1667" xml:space="preserve">
<g>
	<path fill="none" stroke="#67A9DD" stroke-linecap="round" stroke-miterlimit="10" d="M13.6662,35.0323
		c-6.4433,0-12.8865-2.7352-12.8865-3.9165V16.7132c0-1.1813,0.9665-2.1478,2.1478-2.1478H24.405
		c1.1812,0,2.1477,0.9665,2.1477,2.1478v14.4026C26.5527,32.2971,20.1094,35.0323,13.6662,35.0323z"/>
	<path fill="none" stroke="#67A9DD" stroke-linecap="round" stroke-miterlimit="10" d="M19.0417,35.0323L19.0417,35.0323
		c0,0.9724-0.7955,1.7679-1.7679,1.7679h-6.1565c-0.9723,0-1.7679-0.7955-1.7679-1.7679l0,0"/>
	<path fill="none" stroke="#67A9DD" stroke-linecap="round" stroke-miterlimit="10" d="M14.2456,36.8002
		c0,0,0.5053,3.4743-0.8844,5.6221c-1.3897,2.1477-3.0321,3.9165-1.6424,6.0011s4.4218,3.8533,4.4218,3.8533"/>
	<path fill="none" stroke="#67A9DD" stroke-linecap="round" stroke-miterlimit="10" d="M19.6041,32.1897
		c0,0,3.4111-0.2975,5.1799-1.6964"/>
	<path fill="none" stroke="#67A9DD" stroke-linecap="round" stroke-miterlimit="10" d="M24.3734,14.5655V2.4594
		c0-0.7766-0.6354-1.4121-1.4121-1.4121H4.3712c-0.7767,0-1.4121,0.6354-1.4121,1.4121v12.1061"/>
	<path fill="none" stroke="#67A9DD" stroke-linecap="round" stroke-miterlimit="10" d="M12.7092,10.3331H6.6007
		c-0.5959,0-1.0833-0.4875-1.0833-1.0833V5.3522c0-0.5959,0.4875-1.0833,1.0833-1.0833h6.1085c0.5958,0,1.0833,0.4875,1.0833,1.0833
		v3.8976C13.7925,9.8456,13.305,10.3331,12.7092,10.3331z"/>
	
		<ellipse fill="none" stroke="#67A9DD" stroke-linecap="round" stroke-miterlimit="10" cx="8.7178" cy="7.301" rx="1.3897" ry="1.0107"/>
	<path fill="none" stroke="#67A9DD" stroke-linecap="round" stroke-miterlimit="10" d="M13.3242,9.891
		c-1.5206,0-2.7533-1.1737-2.7533-2.6215c0-1.4478,1.2327-2.6215,2.7533-2.6215"/>
</g>
</svg>
