<?xml version="1.0" encoding="utf-8"?>
<!-- Generator: Adobe Illustrator 21.1.0, SVG Export Plug-In . SVG Version: 6.00 Build 0)  -->
<svg version="1.1" id="Calque_1" xmlns="http://www.w3.org/2000/svg" xmlns:xlink="http://www.w3.org/1999/xlink" x="0px" y="0px"
	 viewBox="0 0 56.7 56.7" style="enable-background:new 0 0 56.7 56.7;" xml:space="preserve">
<style type="text/css">
	.st0{fill:none;stroke:#66AAE0;stroke-linecap:round;stroke-miterlimit:10;}
	.st1{fill:none;stroke:#66AAE0;stroke-miterlimit:10;}
	.st2{fill:none;stroke:#66AAE0;stroke-linejoin:round;stroke-miterlimit:10;}
</style>
<g>
	<path class="st0" d="M22.8,20.9c1.9-0.7,4-1.1,6.2-1.1c1.5,0,3,0.2,4.4,0.5"/>
	<circle class="st1" cx="40.5" cy="27" r="1.5"/>
	<path class="st2" d="M46.8,27.3c-1.1,0-1.9-1.4-1.9-1.4c0,0,0,0,0,0c-1.2-2.3-3.3-4.4-5.9-5.8c-0.3-0.7-0.8-2.2-0.2-4
		c0.4-1.1,1.4-3.1,0.6-3.7c-0.9-0.6-2.5,0.5-3.8,2c-1.1,1.4-1.5,3.7-1.5,3.7s-3.1-0.5-5-0.5c-6.2,0-11.5,2.6-14.5,6.4
		c0,0-0.1,0-0.1-0.1c-0.2-0.1-0.4-0.3-0.6-0.5c-0.2-0.2-0.5-0.6-0.7-1c-0.1-0.1-0.1-0.2-0.1-0.3c0,0,0-0.1,0,0l0-0.1l0-0.2
		c0-0.2-0.1-0.4-0.1-0.6c0-0.4,0.1-0.6,0.5-0.7c0.2-0.1,0.4-0.1,0.6-0.2l0.2,0c-0.1,0,0.1,0,0.1,0c0,0,0,0,0,0l0.1,0
		c0.2,0.1,0.4,0.3,0.5,0.5c0.1,0.2,0.1,0.3,0.1,0.3l1-0.1c0,0,0-0.2-0.1-0.5c0-0.2-0.1-0.4-0.2-0.6c-0.1-0.2-0.3-0.5-0.6-0.7
		c-0.1-0.1-0.2-0.1-0.3-0.1c-0.1,0-0.2-0.1-0.3-0.1c-0.1,0-0.1,0-0.2-0.1l-0.2,0c-0.3,0-0.7,0-1.1,0.1c-0.4,0.1-0.8,0.3-1.2,0.6
		c-0.4,0.3-0.6,0.8-0.7,1.2c-0.1,0.4-0.2,0.9-0.2,1.3l0,0.2l0,0.1l0,0.2c0,0.2,0,0.4,0.1,0.6c0.2,0.7,0.5,1.4,0.8,1.9
		c0.3,0.5,0.7,0.9,1,1.1c0.1,0.1,0.3,0.2,0.3,0.3c0,0,0,0,0,0c-0.6,1.3-0.9,2.7-0.9,4.2c0,3.9,2.2,7.1,5.7,9.2v2.3v2.2
		c0,1.2,1,2.2,2.2,2.2c1.2,0,2.1-0.8,2.2-2.2c0-1.4,1.6-2.2,1.6-2.2c0,0,0,0,0-0.1c1.6,0.3,3.3,0.5,5.1,0.5c1.3,0,2.5-0.1,3.8-0.3
		c0.4,0.3,1.3,1,1.3,2c0,1.4,1,2.2,2.2,2.2s2.2-1,2.2-2.2v-2.2v-1.4c3-1.3,5.3-3.3,6.5-5.8c0.9,0,1.3,0,1.8,0c1.3,0,2.3-1.1,2.3-2.3
		v-3C49.1,28.4,47.9,27.4,46.8,27.3z"/>
</g>
</svg>
