<?xml version="1.0" encoding="utf-8"?>
<!-- Generator: Adobe Illustrator 21.1.0, SVG Export Plug-In . SVG Version: 6.00 Build 0)  -->
<svg version="1.1" id="Calque_1" xmlns="http://www.w3.org/2000/svg" xmlns:xlink="http://www.w3.org/1999/xlink" x="0px" y="0px"
	 viewBox="0 0 56.7 56.7" style="enable-background:new 0 0 56.7 56.7;" xml:space="preserve">
<style type="text/css">
	.st0{fill:none;stroke:#66AAE0;stroke-linecap:round;stroke-linejoin:round;stroke-miterlimit:10;}
</style>
<path class="st0" d="M35.8,16c-1.3-0.4-1.8,0.9-4.6,1.6c-2.7,0.8-8.9-4.4-8.9-4.4"/>
<path class="st0" d="M32.7,34.2c0,0,6.4,0.7,8.4,2.4c2,1.6,4.4,4,4.9,10.9c-4.2,1.8-8.6,3.8-17.7,3.8c-9.1,0-15.5-2.7-17.8-3.6
	c0.5-5.5,2.4-13.1,13.5-12.9"/>
<polyline class="st0" points="24.8,37.7 28.3,40.4 31.6,37.7 "/>
<circle class="st0" cx="24.2" cy="22.1" r="3"/>
<circle class="st0" cx="32.6" cy="22.1" r="3"/>
<path class="st0" d="M27,20.7c0-0.8,0.6-1.4,1.4-1.4c0.8,0,1.4,0.6,1.4,1.4"/>
<path class="st0" d="M29.5,26.2c0,0.4-0.6,0.7-1.4,0.7c-0.8,0-1.4-0.3-1.4-0.7"/>
<polyline class="st0" points="24.3,31.7 23.9,34.8 28.3,37.7 32.7,34.2 32.3,32.2 "/>
<path class="st0" d="M36.9,20.3l-0.2,0c-0.2-6-2.2-10.6-8.3-10.7c-6.6-0.2-8.2,4.7-8.3,10.7l-0.5,0c-0.6,0-1.1,0.9-1.1,2
	s0.5,2,1.1,2l0.7-0.1c0.7,4.1,2.9,7.3,5.7,8.5c0.8,0.3,1.6,0.5,2.4,0.5c1.2,0,2.2-0.3,3.2-0.9c2.4-1.4,4.2-4.4,4.8-7.9l0.4,0
	c0.6,0,1.1-0.9,1.1-2S37.5,20.3,36.9,20.3z"/>
</svg>
