<?xml version="1.0" encoding="utf-8"?>
<!-- Generator: Adobe Illustrator 21.1.0, SVG Export Plug-In . SVG Version: 6.00 Build 0)  -->
<svg version="1.1" id="Calque_1" xmlns="http://www.w3.org/2000/svg" xmlns:xlink="http://www.w3.org/1999/xlink" x="0px" y="0px"
	 viewBox="0 0 56.7 56.7" style="enable-background:new 0 0 56.7 56.7;" xml:space="preserve">
<style type="text/css">
	.st0{fill:none;stroke:#66AAE0;stroke-miterlimit:10;}
</style>
<g>
	<polyline class="st0" points="49.5,20.2 45.5,19.2 44.5,23.2 	"/>
	<polyline class="st0" points="10.7,39.4 14.7,40.4 15.7,36.5 	"/>
	<path class="st0" d="M14.8,40.6c-2.2-3.1-3.4-6.8-3.4-10.8c0-10.3,8.4-18.7,18.7-18.7c4.6,0,8.9,1.7,12.2,4.5"/>
	<path class="st0" d="M45.5,19.2c2.1,3,3.3,6.7,3.3,10.6c0,10.4-8.4,18.7-18.7,18.7c-4.4,0-8.5-1.5-11.7-4.1"/>
</g>
<g>
	<g>
		<line class="st0" x1="19.5" y1="28.3" x2="29.7" y2="28.3"/>
		<line class="st0" x1="19.5" y1="31.7" x2="29.7" y2="31.7"/>
	</g>
	<path class="st0" d="M36.8,35.2c-1.4,1.6-3.6,2.7-5.9,2.7c-4.3,0-7.9-3.5-7.9-7.9c0-4.3,3.5-7.9,7.9-7.9c2.4,0,4.6,1.1,6,2.8"/>
</g>
</svg>
