<?xml version="1.0" encoding="utf-8"?>
<!-- Generator: Adobe Illustrator 21.1.0, SVG Export Plug-In . SVG Version: 6.00 Build 0)  -->
<svg version="1.1" id="Calque_1" xmlns="http://www.w3.org/2000/svg" xmlns:xlink="http://www.w3.org/1999/xlink" x="0px" y="0px"
	 viewBox="0 0 56.7 56.7" style="enable-background:new 0 0 56.7 56.7;" xml:space="preserve">
<style type="text/css">
	.st0{fill:none;stroke:#66AAE0;stroke-miterlimit:10;}
	.st1{fill:#80858E;stroke:#66AAE0;stroke-miterlimit:10;}
</style>
<g>
	<line class="st0" x1="21.5" y1="14.5" x2="21.5" y2="20.4"/>
	<line class="st0" x1="26.9" y1="14.5" x2="26.9" y2="20.4"/>
	<line class="st0" x1="32.3" y1="14.5" x2="32.3" y2="20.4"/>
	<line class="st0" x1="37.6" y1="14.5" x2="37.6" y2="20.4"/>
</g>
<g>
	<rect x="14.6" y="17" class="st0" width="29.9" height="28.9"/>
	<rect x="20.5" y="26.1" class="st1" width="1.3" height="1.3"/>
	<rect x="26" y="26.1" class="st1" width="1.3" height="1.3"/>
	<rect x="31.5" y="26.1" class="st1" width="1.3" height="1.3"/>
	<rect x="37.1" y="26.1" class="st1" width="1.3" height="1.3"/>
	<rect x="20.5" y="31.6" class="st1" width="1.3" height="1.3"/>
	<rect x="26" y="31.6" class="st1" width="1.3" height="1.3"/>
	<rect x="31.5" y="31.6" class="st1" width="1.3" height="1.3"/>
	<rect x="37.1" y="31.6" class="st1" width="1.3" height="1.3"/>
	<rect x="20.5" y="37.2" class="st1" width="1.3" height="1.3"/>
	<rect x="26" y="37.2" class="st1" width="1.3" height="1.3"/>
	<rect x="31.5" y="37.2" class="st1" width="1.3" height="1.3"/>
</g>
</svg>
