<?xml version="1.0" encoding="utf-8"?>
<!-- Generator: Adobe Illustrator 21.1.0, SVG Export Plug-In . SVG Version: 6.00 Build 0)  -->
<svg version="1.1" id="Calque_1" xmlns="http://www.w3.org/2000/svg" xmlns:xlink="http://www.w3.org/1999/xlink" x="0px" y="0px"
	 viewBox="0 0 56.7 56.7" style="enable-background:new 0 0 56.7 56.7;" xml:space="preserve">
<style type="text/css">
	.st0{fill:#67A9DD;}
	.st1{fill:none;stroke:#67A9DD;stroke-width:2;stroke-linecap:round;stroke-miterlimit:10;}
</style>
<path class="st0" d="M48.3,14.3v-9c0-1.7-1.3-3-3-3h-26c-0.3,0-0.5,0.1-0.7,0.3l-10,10c-0.2,0.2-0.3,0.4-0.3,0.7v38c0,1.7,1.3,3,3,3
	h34c1.7,0,3-1.3,3-3v-3 M18.3,5.7v5.6c0,0.5-0.4,1-1,1h-5.6L18.3,5.7z M46.3,48.3v3c0,0.5-0.5,1-1,1h-34c-0.6,0-1-0.4-1-1v-37h7
	c1.7,0,3-1.3,3-3v-7h25c0.6,0,1,0.4,1,1v9V48.3z"/>
<line class="st1" x1="15.3" y1="23.5" x2="41.4" y2="23.5"/>
<line class="st1" x1="15.3" y1="30.1" x2="41.4" y2="30.1"/>
<line class="st1" x1="15.3" y1="36.7" x2="41.4" y2="36.7"/>
<line class="st1" x1="15.3" y1="43.3" x2="41.4" y2="43.3"/>
</svg>
