<?xml version="1.0" encoding="utf-8"?>
<!-- Generator: Adobe Illustrator 21.1.0, SVG Export Plug-In . SVG Version: 6.00 Build 0)  -->
<svg version="1.1" id="Icons" xmlns="http://www.w3.org/2000/svg" xmlns:xlink="http://www.w3.org/1999/xlink" x="0px" y="0px"
	 viewBox="0 0 56.7 56.7" style="enable-background:new 0 0 56.7 56.7;" xml:space="preserve">
<style type="text/css">
	.st0{fill:#66AAE0;}
</style>
<path class="st0" d="M17.3,24.3h8c0.6,0,1-0.4,1-1s-0.4-1-1-1h-8c-0.6,0-1,0.4-1,1S16.7,24.3,17.3,24.3z M17.3,34.3h8
	c0.6,0,1-0.4,1-1s-0.4-1-1-1h-8c-0.6,0-1,0.4-1,1S16.7,34.3,17.3,34.3z M25.3,42.3h-8c-0.6,0-1,0.4-1,1s0.4,1,1,1h8c0.6,0,1-0.4,1-1
	S25.9,42.3,25.3,42.3z M12.6,18.6l-3.3,3.3L8,20.6c-0.4-0.4-1-0.4-1.4,0s-0.4,1,0,1.4l2,2c0.2,0.2,0.4,0.3,0.7,0.3S9.8,24.2,10,24
	l4-4c0.4-0.4,0.4-1,0-1.4C13.6,18.2,13,18.2,12.6,18.6z M12.6,28.6L12.6,28.6l-3.3,3.3L8,30.6c-0.4-0.4-1-0.4-1.4,0s-0.4,1,0,1.4
	l2,2c0.2,0.2,0.4,0.3,0.7,0.3S9.8,34.2,10,34l4-4c0.4-0.4,0.4-1,0-1.4C13.6,28.2,13,28.2,12.6,28.6z M12.6,38.6L12.6,38.6l-3.3,3.3
	L8,40.6c-0.4-0.4-1-0.4-1.4,0s-0.4,1,0,1.4l2,2c0.2,0.2,0.4,0.3,0.7,0.3S9.8,44.2,10,44l4-4c0.4-0.4,0.4-1,0-1.4
	C13.6,38.2,13,38.2,12.6,38.6z M54,14.6c-0.2-0.2-0.4-0.3-0.7-0.3h-11v-9c0-1.7-1.3-3-3-3h-26c-0.3,0-0.5,0.1-0.7,0.3l-10,10
	c-0.2,0.2-0.3,0.4-0.3,0.7v38c0,1.7,1.3,3,3,3h34c1.7,0,3-1.3,3-3v-3h11c0.3,0,0.5-0.1,0.7-0.3s0.3-0.4,0.3-0.7v-32
	C54.3,15,54.2,14.8,54,14.6z M12.3,5.7v5.6c0,0.5-0.4,1-1,1H5.7L12.3,5.7z M40.3,51.3c0,0.5-0.5,1-1,1h-34c-0.6,0-1-0.4-1-1v-37h7
	c1.7,0,3-1.3,3-3v-7h25c0.6,0,1,0.4,1,1v9h-11c-0.3,0-0.5,0.1-0.7,0.3s-0.3,0.4-0.3,0.7v3h-11c-0.6,0-1,0.4-1,1s0.4,1,1,1h11v8h-11
	c-0.6,0-1,0.4-1,1s0.4,1,1,1h11v8h-11c-0.6,0-1,0.4-1,1s0.4,1,1,1h11v7c0,0.3,0.1,0.5,0.3,0.7s0.4,0.3,0.7,0.3h11V51.3z M40.3,46.3
	h-10v-10h10V46.3z M40.3,34.3h-10v-10h10V34.3z M52.3,46.3h-10v-22h10V46.3z M52.3,22.3h-22v-3l0,0l0,0v-3h22V22.3z M45.3,34.3h4
	c0.6,0,1-0.4,1-1s-0.4-1-1-1h-4c-0.6,0-1,0.4-1,1S44.7,34.3,45.3,34.3z M49.3,36.3h-4c-0.6,0-1,0.4-1,1s0.4,1,1,1h4c0.6,0,1-0.4,1-1
	S49.9,36.3,49.3,36.3z M33.3,30.3h1v1c0,0.6,0.4,1,1,1s1-0.4,1-1v-1h1c0.6,0,1-0.4,1-1s-0.4-1-1-1h-1v-1c0-0.6-0.4-1-1-1s-1,0.4-1,1
	v1h-1c-0.6,0-1,0.4-1,1S32.7,30.3,33.3,30.3z M33.3,42.3h4c0.6,0,1-0.4,1-1s-0.4-1-1-1h-4c-0.6,0-1,0.4-1,1S32.7,42.3,33.3,42.3z"/>
</svg>
