<?xml version="1.0" encoding="utf-8"?>
<!-- Generator: Adobe Illustrator 21.1.0, SVG Export Plug-In . SVG Version: 6.00 Build 0)  -->
<svg version="1.1" id="Calque_1" xmlns="http://www.w3.org/2000/svg" xmlns:xlink="http://www.w3.org/1999/xlink" x="0px" y="0px"
	 viewBox="0 0 56.7 56.7" style="enable-background:new 0 0 56.7 56.7;" xml:space="preserve">
<style type="text/css">
	.st0{fill:none;stroke:#66AAE0;stroke-linecap:round;stroke-miterlimit:10;}
</style>
<g>
	<path class="st0" d="M47.6,39.2H10.1c-1.3,0-2.5-1.2-2.5-2.5V15.4c0-1.3,1.1-2.3,2.5-2.3h37.5c1.3,0,2.5,1.2,2.5,2.5v21.2
		C50.1,38.2,49,39.2,47.6,39.2z"/>
	<path class="st0" d="M44.9,36.7h-32c-1.2,0-2.2-1.1-2.2-2.3V17.9c0-1.2,1-2.1,2.2-2.1h32c1.2,0,2.2,1.1,2.2,2.3v16.5
		C47.1,35.8,46.1,36.7,44.9,36.7z"/>
	<path class="st0" d="M49.1,41H33.4c0,0.1,0.1,0.2,0.1,0.4v0.5c0,0.7-0.6,1.2-1.2,1.2h-6.8c-0.7,0-1.2-0.5-1.2-1.2v-0.5
		c0-0.1,0-0.2,0.1-0.4H8.6c-0.7,0-1.2,0.5-1.2,1.2v2.4c0,0.7,0.6,1.2,1.2,1.2h40.4c0.7,0,1.2-0.5,1.2-1.2v-2.4
		C50.3,41.5,49.7,41,49.1,41z"/>
	<path class="st0" d="M47,44.2h-3.3c-0.4,0-0.7-0.3-0.7-0.7l0,0c0-0.4,0.3-0.7,0.7-0.7H47c0.4,0,0.7,0.3,0.7,0.7l0,0
		C47.8,43.8,47.4,44.2,47,44.2z"/>
</g>
</svg>
