<?xml version="1.0" encoding="utf-8"?>
<!-- Generator: Adobe Illustrator 21.1.0, SVG Export Plug-In . SVG Version: 6.00 Build 0)  -->
<svg version="1.1" id="Calque_1" xmlns="http://www.w3.org/2000/svg" xmlns:xlink="http://www.w3.org/1999/xlink" x="0px" y="0px"
	 viewBox="0 0 56.7 56.7" style="enable-background:new 0 0 56.7 56.7;" xml:space="preserve">
<style type="text/css">
	.st0{fill:none;stroke:#66AAE0;stroke-miterlimit:10;}
	.st1{fill:none;stroke:#66AAE0;stroke-linecap:round;stroke-linejoin:round;stroke-miterlimit:10;}
</style>
<circle class="st0" cx="26.5" cy="44.9" r="2.8"/>
<path class="st0" d="M23.2,38.9c0,0-5.9-15.5-7.8-20.6c-0.5-1.5-1.7-2.8-3.3-2.6l0.1,0"/>
<path class="st1" d="M12.5,15.8c0,0.7-0.6,1.3-1.3,1.3H7.3c-0.7,0-1.3-0.6-1.3-1.3v-0.4c0-0.7,0.6-1.3,1.3-1.3h3.9
	c0.7,0,1.3,0.6,1.3,1.3V15.8z"/>
<path class="st0" d="M19.6,44.9c0-3.8,3.1-6.9,6.9-6.9c3.8,0,6.9,3.1,6.9,6.9c0,3.8-3.1,6.9-6.9,6.9C22.7,51.8,19.6,48.7,19.6,44.9z
	"/>
<polygon class="st0" points="39.4,21.9 21.9,28.3 17.8,17.3 35.3,10.9 "/>
<rect x="25.5" y="14.1" transform="matrix(0.9398 -0.3418 0.3418 0.9398 -4.0171 10.2357)" class="st0" width="3" height="4.8"/>
<rect x="30.9" y="24.6" transform="matrix(0.9397 -0.342 0.342 0.9397 -7.282 12.7247)" class="st0" width="3" height="4.9"/>
<polyline class="st0" points="25.4,38.1 21.9,28.3 42.4,20.8 48.2,36.7 33,42.3 "/>
<line class="st0" x1="33.4" y1="44.9" x2="44.9" y2="40.9"/>
</svg>
