<?xml version="1.0" encoding="utf-8"?>
<!-- Generator: Adobe Illustrator 21.1.0, SVG Export Plug-In . SVG Version: 6.00 Build 0)  -->
<svg version="1.1" id="Calque_1" xmlns="http://www.w3.org/2000/svg" xmlns:xlink="http://www.w3.org/1999/xlink" x="0px" y="0px"
	 viewBox="0 0 56.7 56.7" style="enable-background:new 0 0 56.7 56.7;" xml:space="preserve">
<style type="text/css">
	.st0{fill:none;stroke:#66AAE0;stroke-linecap:round;stroke-linejoin:round;stroke-miterlimit:10;}
</style>
<path class="st0" d="M25.1,20.4l-2-0.7c-0.3-0.1-0.6,0-0.8,0.2L19,23.2l-3.3-3.3c-0.2-0.2-0.5-0.3-0.8-0.2l-2,0.7
	c-1.4,0.5-2.3,1.8-2.3,3.3v8.9c0,1.8,1.3,3.4,3,3.7v13c0,0.2,0.1,0.4,0.2,0.5c0.1,0.1,0.3,0.2,0.5,0.2h9.1c0.2,0,0.4-0.1,0.5-0.2
	c0.1-0.1,0.2-0.3,0.2-0.5v-13c1.7-0.4,3-1.9,3-3.7v-8.9C27.5,22.2,26.5,20.9,25.1,20.4z M19.1,19.7c2.5,0,4.6-2,4.6-4.6
	c0-2.5-2-4.6-4.6-4.6c-2.5,0-4.6,2-4.6,4.6C14.6,17.7,16.6,19.7,19.1,19.7z"/>
<line class="st0" x1="24.4" y1="36.3" x2="24.4" y2="27.7"/>
<line class="st0" x1="13.8" y1="36.3" x2="13.8" y2="27.7"/>
<line class="st0" x1="19" y1="49.9" x2="19" y2="34.1"/>
<path class="st0" d="M38.4,42.6h-1.6c-1.5,0-2.8-1.2-2.8-2.8v-0.1V20.4c0-1.5,1.2-2.8,2.8-2.8h1.6"/>
<circle class="st0" cx="42.5" cy="30.2" r="4"/>
<circle class="st0" cx="42.5" cy="18" r="4"/>
<circle class="st0" cx="42.5" cy="42.6" r="4"/>
<line class="st0" x1="38.2" y1="30.2" x2="29.7" y2="30.2"/>
</svg>
