<?xml version="1.0" encoding="utf-8"?>
<!-- Generator: Adobe Illustrator 21.1.0, SVG Export Plug-In . SVG Version: 6.00 Build 0)  -->
<svg version="1.1" id="Calque_1" xmlns="http://www.w3.org/2000/svg" xmlns:xlink="http://www.w3.org/1999/xlink" x="0px" y="0px"
	 viewBox="0 0 56.7 56.7" style="enable-background:new 0 0 56.7 56.7;" xml:space="preserve">
<style type="text/css">
	.st0{fill:none;stroke:#66AAE0;stroke-miterlimit:10;}
	.st1{fill:#80868D;stroke:#66AAE0;stroke-miterlimit:10;}
</style>
<path class="st0" d="M46.2,27.5c0-9.6-7.8-17.4-17.4-17.4c-9.6,0-17.4,7.8-17.4,17.4c0,9.6,7.8,17.4,17.4,17.4
	c1.9,0,3.7-0.3,5.4-0.9L41,51l0-11C44.2,36.8,46.2,32.4,46.2,27.5z"/>
<g>
	<path class="st0" d="M24.5,19.4c2.2-2.2,5.7-2.2,7.9,0c2.2,2.2,2.2,5.7,0,7.9c-1.2,1.2-2.1,1.6-3.7,1.7c0,0-0.9-0.1-0.9,1.1
		c0,0.7,0,3,0,3"/>
	<circle class="st1" cx="27.8" cy="36.5" r="0.8"/>
</g>
</svg>
