<?xml version="1.0" encoding="utf-8"?>
<!-- Generator: Adobe Illustrator 21.1.0, SVG Export Plug-In . SVG Version: 6.00 Build 0)  -->
<svg version="1.1" id="Calque_1" xmlns="http://www.w3.org/2000/svg" xmlns:xlink="http://www.w3.org/1999/xlink" x="0px" y="0px"
	 viewBox="0 0 56.7 56.7" style="enable-background:new 0 0 56.7 56.7;" xml:space="preserve">
<style type="text/css">
	.st0{fill:none;stroke:#66AAE0;stroke-linecap:round;stroke-miterlimit:10;}
	.st1{fill:none;stroke:#66AAE0;stroke-linecap:round;stroke-linejoin:round;stroke-miterlimit:10;}
</style>
<path class="st0" d="M41,41.4H18V17.7c0-1.6,2.3-2.8,3.8-2.8h16.3c1.6,0,2.8,1.3,2.8,2.8L41,41.4L41,41.4z"/>
<line class="st1" x1="16.3" y1="20.8" x2="16.3" y2="27.1"/>
<line class="st1" x1="42.6" y1="20.8" x2="42.6" y2="27.1"/>
<line class="st1" x1="26.5" y1="17" x2="32.8" y2="17"/>
<line class="st1" x1="18.6" y1="33.2" x2="41" y2="33.2"/>
<line class="st1" x1="18.6" y1="18.6" x2="41" y2="18.6"/>
<path class="st0" d="M24.4,41.8V42c0,1.5-1.2,2.7-2.7,2.7l0,0c-1.5,0-2.7-1.2-2.7-2.7v-0.3"/>
<path class="st0" d="M40.5,41.8V42c0,1.5-1.2,2.7-2.7,2.7l0,0c-1.5,0-2.7-1.2-2.7-2.7v-0.3"/>
<path class="st0" d="M37.2,35c1.1,0,1.9,0.9,1.9,1.9l0,0c0,1.1-0.9,1.9-1.9,1.9h-0.9c-1.1,0-1.9-0.9-1.9-1.9l0,0
	c0-1.1,0.9-1.9,1.9-1.9H37.2z"/>
<path class="st0" d="M23.6,35c1.1,0,1.9,0.9,1.9,1.9l0,0c0,1.1-0.9,1.9-1.9,1.9h-0.9c-1.1,0-1.9-0.9-1.9-1.9l0,0
	c0-1.1,0.9-1.9,1.9-1.9H23.6z"/>
</svg>
