<?xml version="1.0" encoding="utf-8"?>
<!-- Generator: Adobe Illustrator 21.1.0, SVG Export Plug-In . SVG Version: 6.00 Build 0)  -->
<svg version="1.1" id="Calque_1" xmlns="http://www.w3.org/2000/svg" xmlns:xlink="http://www.w3.org/1999/xlink" x="0px" y="0px"
	 viewBox="0 0 56.7 56.7" style="enable-background:new 0 0 56.7 56.7;" xml:space="preserve">
<style type="text/css">
	.st0{fill:none;stroke:#66AAE0;stroke-linecap:round;stroke-miterlimit:10;}
	.st1{fill:none;stroke:#66AAE0;stroke-linejoin:round;stroke-miterlimit:10;}
</style>
<path class="st0" d="M46,41.9h-0.8c-0.9,0-2.2-5.4-2.2-6.3V15.8c0-0.9,0.7-1.6,1.6-1.6h1.6c0.9,0,1.9,0.7,1.9,1.6v19.8
	C48.2,36.4,46.9,41.9,46,41.9z"/>
<path class="st0" d="M48.8,16h-0.4c0.7,0,1.6,0.6,1.6,1.3v8.5"/>
<line class="st0" x1="43" y1="25.9" x2="48.1" y2="25.9"/>
<rect x="10.3" y="11.4" class="st1" width="27.7" height="36.4"/>
<line class="st1" x1="28.5" y1="19.9" x2="14.7" y2="19.9"/>
<line class="st1" x1="28.5" y1="26.4" x2="14.7" y2="26.4"/>
<line class="st1" x1="28.5" y1="29.5" x2="14.7" y2="29.5"/>
<line class="st1" x1="28.5" y1="32.6" x2="14.7" y2="32.6"/>
<line class="st1" x1="28.5" y1="35.7" x2="14.7" y2="35.7"/>
<line class="st1" x1="33.5" y1="26.4" x2="30.8" y2="26.4"/>
<line class="st1" x1="33.5" y1="29.5" x2="30.8" y2="29.5"/>
<line class="st1" x1="33.5" y1="32.6" x2="30.8" y2="32.6"/>
<line class="st1" x1="33.5" y1="40.8" x2="27.1" y2="40.8"/>
</svg>
