<?xml version="1.0" encoding="utf-8"?>
<!-- Generator: Adobe Illustrator 21.1.0, SVG Export Plug-In . SVG Version: 6.00 Build 0)  -->
<svg version="1.1" id="Calque_1" xmlns="http://www.w3.org/2000/svg" xmlns:xlink="http://www.w3.org/1999/xlink" x="0px" y="0px"
	 viewBox="0 0 56.7 56.7" style="enable-background:new 0 0 56.7 56.7;" xml:space="preserve">
<style type="text/css">
	.st0{fill:none;stroke:#66AAE0;stroke-linecap:round;stroke-miterlimit:10;}
	.st1{fill:none;stroke:#66AAE0;stroke-linecap:round;stroke-linejoin:round;stroke-miterlimit:10;}
</style>
<g>
	<polyline class="st0" points="40.6,26.6 38.2,38.3 41.2,38.2 42.4,49.3 	"/>
	<path class="st0" d="M40.6,26.6"/>
	<path class="st0" d="M39.4,18.9"/>
	<path class="st1" d="M42.2,17.8c0,0-1.9-0.2-2.8,1.1l-3.2,14.4c0,0-2.1-3.4-2.4-4.1c-0.4-0.7-1.7-1.1-1.7-1.1h-3.7
		c0,0-1.4,0.4-1.7,1.1l-3.2,4.4c0,0-0.6-15-1.1-16.1c-0.6-1.1-3.9-2.2-3.9-2.2"/>
	<path class="st0" d="M46.4,17.8c0,0,2-0.2,2.9,1.1c0.1,0.1,0.1,0.5,0.1,0.5l0.8,13.3"/>
	<polyline class="st0" points="46.3,49.3 47.5,38.2 50.5,38.3 49.3,32.6 	"/>
	<path class="st0" d="M13.6,15.3c0,0-3,0.9-3.9,2.2c-0.9,1.3,0,13.1,0,13.1l1.9,1.9l0,16.8"/>
	<line class="st0" x1="20.4" y1="49.3" x2="20.4" y2="32.7"/>
	<line class="st1" x1="32.8" y1="49.3" x2="33.5" y2="39.2"/>
	<line class="st0" x1="27.3" y1="49.3" x2="26.4" y2="39.4"/>
	<ellipse class="st0" cx="30.2" cy="24.5" rx="2.6" ry="3.2"/>
	<path class="st1" d="M14.6,15.7v-2.3c-0.7-0.7-1.9-1.8-1.9-3c0-2.2,1.5-4,3.3-4c1.8,0,3.3,1.8,3.3,4c0,1.1-1.1,2.1-1.7,2.9v2.5"/>
	<path class="st0" d="M46.2,17.5L46,16.4l0.2-0.4h1v-2.5c0-0.1,0-0.3,0-0.4c0-2-1.3-3.6-2.9-3.6c-1.6,0-2.9,1.6-2.9,3.6
		c0,0.2,0,0.3,0,0.4V16h1.1l0.2,0.4l0,1.3"/>
</g>
</svg>
