<?xml version="1.0" encoding="utf-8"?>
<!-- Generator: Adobe Illustrator 21.1.0, SVG Export Plug-In . SVG Version: 6.00 Build 0)  -->
<svg version="1.1" id="Calque_1" xmlns="http://www.w3.org/2000/svg" xmlns:xlink="http://www.w3.org/1999/xlink" x="0px" y="0px"
	 viewBox="0 0 56.7 56.7" style="enable-background:new 0 0 56.7 56.7;" xml:space="preserve">
<style type="text/css">
	.st0{fill:none;stroke:#66AAE0;stroke-linecap:round;stroke-linejoin:round;stroke-miterlimit:10;}
	.st1{fill:none;stroke:#66AAE0;stroke-miterlimit:10;}
</style>
<path class="st0" d="M17.9,20.3h28.7L45,34l-23.3,2.3c0,0-3.9-0.3-4.1,5.8"/>
<circle class="st1" cx="17.8" cy="44.5" r="2.5"/>
<circle class="st1" cx="40.6" cy="44.5" r="2.5"/>
<line class="st1" x1="41" y1="42" x2="17.6" y2="42"/>
<path class="st1" d="M21.7,36.2c0,0-3.4-13.7-4.4-18.2c-0.3-1.3-1.1-2.5-2.5-2.5h-0.3"/>
<path class="st1" d="M14.4,15.6c0,0.6-0.5,1.1-1.1,1.1H10c-0.6,0-1.1-0.5-1.1-1.1v-0.3c0-0.6,0.5-1.1,1.1-1.1h3.3
	c0.6,0,1.1,0.5,1.1,1.1V15.6z"/>
</svg>
